<?xml version="1.0" standalone="no"?>
<!DOCTYPE svg PUBLIC "-//W3C//DTD SVG 1.1//EN" "http://www.w3.org/Graphics/SVG/1.1/DTD/svg11.dtd" >
<!--
2013-9-30: Created.
-->
<svg>
<metadata>
Created by iconfont
</metadata>
<defs>

<font id="iconfont" horiz-adv-x="1024" >
  <font-face
    font-family="iconfont"
    font-weight="500"
    font-stretch="normal"
    units-per-em="1024"
    ascent="896"
    descent="-128"
  />
    <missing-glyph />
    
    <glyph glyph-name="zhankai-left-up-right-down" unicode="&#58970;" d="M707.2954293 400.18470409L512.12546282 205.01473761 316.67947812 400.46072229l17.74044307 17.74044308 177.70554164-177.70554159 177.42952338 177.47970851zM707.2954293 542.68537773L512.12546282 347.54050382 316.67947812 542.9864885100001l17.74044307 17.74044309 177.70554163-177.70554162 177.42952339 177.40443083z"  horiz-adv-x="1024" />

    
    <glyph glyph-name="tianjia" unicode="&#59110;" d="M942.08 896H81.92C36.6592 896 0 859.3408 0 814.08v-860.16c0-45.2608 36.6592-81.92 81.92-81.92h860.16c45.2608 0 81.92 36.6592 81.92 81.92V814.08c0 45.2608-36.6592 81.92-81.92 81.92zM819.2 329.8304H566.1696V76.8H457.8304V329.8304H204.8V438.1696h253.0304V691.2H566.272v-253.0304H819.2v-108.3392z"  horiz-adv-x="1024" />

    
    <glyph glyph-name="yanjing1" unicode="&#58957;" d="M512.32256 654.16704c192.88576 0 358.93248-113.14176 436.6336-276.43392h75.71968c-82.06336 202.52672-280.37632 345.5232-512.35328 345.5232C280.3712 723.25632 82.06336 580.25984 0 377.73312h75.71456c77.696 163.29728 243.7376 276.43392 436.608 276.43392zM512.32256 101.28384c-192.8704 0-358.912 113.15712-436.608 276.44928H0c82.06336-202.55744 280.36608-345.5744 512.31232-345.5744 231.9872 0 430.29504 143.02208 512.36352 345.5744h-75.71968c-77.70112-163.29216-243.7376-276.44928-436.6336-276.44928zM328.04352 377.71264c0-101.7856 82.50368-184.28416 184.28416-184.28416 101.79072 0 184.2944 82.49856 184.2944 184.28416 0 101.79072-82.49856 184.28928-184.2944 184.28928-101.77536 0.00512-184.28416-82.49856-184.28416-184.28928z m299.48928 0c0-63.61088-51.584-115.19488-115.20512-115.19488-63.61088 0-115.15392 51.584-115.15392 115.19488 0 63.616 51.54304 115.2 115.15392 115.2 63.62112 0 115.20512-51.584 115.20512-115.2z"  horiz-adv-x="1024" />

    
    <glyph glyph-name="xiugai" unicode="&#58961;" d="M599.9 751.2c32.3-13.7 61.4-33.4 85.8-57.8-24.4 24.4-53.5 44.2-85.8 57.8zM584.5 761.6c-195 0-355.6-149.3-374-339.5H81.8c-16.3 0-24.5-19.8-13-31.3l201.6-201.6L472 390.7c11.6 11.6 3.4 31.3-13 31.3H323.6C341.5 550.6 451 650.3 584.5 650.3c145.9 0 264.6-118.7 264.6-264.6S730.4 121.2 584.5 121.2c-39.4 0-77.3 8.4-112.5 25.1l-47.4-100.6C474.8 22 528.7 10 584.5 10c207.2 0 375.8 168.6 375.8 375.8S791.8 761.6 584.5 761.6z"  horiz-adv-x="1024" />

    
    <glyph glyph-name="yanjing2" unicode="&#58968;" d="M941.677 504.29c9.338 14.006 6.225 32.681-6.225 43.575-14.006 10.894-32.681 7.781-43.575-6.225-1.557-1.556-174.3-205.426-379.728-205.426-199.2 0-379.727 205.426-381.283 206.982-10.895 12.45-31.125 14.006-43.576 3.113-12.45-10.894-14.006-31.125-3.113-43.576 3.113-4.668 40.463-46.687 99.6-93.375l-79.37-82.482c-12.45-12.45-10.893-32.681 1.557-43.575 3.113-6.225 10.894-9.338 18.676-9.338 7.78 0 15.562 3.113 21.787 9.338l85.594 88.706c40.463-28.013 88.707-54.47 141.62-73.144l-32.682-110.495c-4.668-17.118 4.67-34.237 21.788-38.906h9.337c14.006 0 26.457 9.338 29.569 23.344l32.681 110.495c24.9-4.669 51.357-7.782 77.813-7.782s52.913 3.113 77.814 7.782l32.68-108.939c3.114-14.006 17.12-23.343 29.57-23.343 3.113 0 6.225 0 7.782 1.556 17.118 4.67 26.456 21.787 21.788 38.906L649.099 300.42c52.914 18.676 101.157 45.132 141.62 73.144l84.038-87.15c6.225-6.225 14.006-9.338 21.787-9.338 7.781 0 15.563 3.113 21.787 9.337 12.45 12.451 12.45 31.125 1.557 43.576l-79.37 82.481c63.808 46.689 101.16 91.82 101.16 91.82z"  horiz-adv-x="1024" />

    
    <glyph glyph-name="zhengce" unicode="&#58958;" d="M64 704v-640c0-70.7 57.3-128 128-128V832c-70.7 0-128-57.3-128-128zM832 832v-255.1L703.8 704 576 576V832H256v-896h576c70.7 0 128 57.3 128 128V704c0 70.7-57.3 128-128 128z m0-640H384v64h448v-64z m0 192H384v64h448v-64z m0 0"  horiz-adv-x="1024" />

    
    <glyph glyph-name="neirong" unicode="&#59071;" d="M174.5 53.53125h56.25v-21.09375c0-24.58125 24.4125-45.95625 56.25-45.95625h562.5c31.8375 0 56.25 21.375 56.25 45.95625V623.0625c0 24.58125-24.4125 45.95625-56.25 45.95625h-28.63125V721.5H849.5c62.15625 0 112.5-44.1 112.5-98.4375v-590.625c0-54.3375-50.34375-98.4375-112.5-98.4375H287c-62.15625 0-112.5 44.1-112.5 98.4375v21.09375z m0 0h56.25v-21.09375c0-24.58125 24.4125-45.95625 56.25-45.95625h562.5c31.8375 0 56.25 21.375 56.25 45.95625V623.0625c0 24.58125-24.4125 45.95625-56.25 45.95625h-28.63125V721.5H849.5c62.15625 0 112.5-44.1 112.5-98.4375v-590.625c0-54.3375-50.34375-98.4375-112.5-98.4375H287c-62.15625 0-112.5 44.1-112.5 98.4375v21.09375zM174.5 781.51875c-31.05 0-56.25-23.5125-56.25-52.5375v-577.4625c0-29.025 25.2-52.5375 56.25-52.5375h562.5c31.05 0 56.25 23.5125 56.25 52.5375V728.98125c0 29.025-25.2 52.5375-56.25 52.5375H174.5zM174.5 834h562.5c62.15625 0 112.5-47.025 112.5-105.01875v-577.4625C849.5 93.52499999999998 799.15625 46.5 737 46.5H174.5C112.34375 46.5 62 93.52499999999998 62 151.51874999999995V728.98125C62 786.975 112.34375 834 174.5 834zM680.75 665.25a28.125 28.125 0 1 0 0-56.25H343.25a28.125 28.125 0 0 0 0 56.25h337.5zM202.625 665.25h56.25v-56.25h-56.25v56.25zM680.75 271.5a28.125 28.125 0 1 0 0-56.25H343.25a28.125 28.125 0 1 0 0 56.25h337.5zM202.625 271.5h56.25v-56.25h-56.25v56.25zM680.75 468.375a28.125 28.125 0 1 0 0-56.25H343.25a28.125 28.125 0 0 0 0 56.25h337.5zM202.625 468.375h56.25v-56.25h-56.25v56.25z"  horiz-adv-x="1024" />

    
    <glyph glyph-name="biaoti" unicode="&#58999;" d="M369.001618 80.752219 369.001618 102.252713 451.694005 102.252713 451.694005 611.851689 384.751323 611.851689C342.728704 611.851689 312.518949 597.518027 294.184082 568.850703 286.308059 552.109004 275.787191 534.298886 262.681161 491.297898 262.681161 479.316165 261.328311 470.973369 258.74315 466.214577L235.116251 466.214577 242.992274 633.352183 762.774674 633.352183 770.649525 466.214577 743.085789 466.214577C740.439773 521.141187 723.398069 550.93421 691.89515 579.601534 668.269422 601.102027 636.766499 611.851689 597.389899 611.851689L550.136099 611.851689 550.136099 102.252713 632.828491 102.252713 632.828491 80.752219 369.001618 80.752219 369.001618 80.752219ZM512.248099 894.843909C230.258395 894.843909 0.813349 665.661954 0.813349 383.992986 0.813349 102.287781 230.220946-126.857937 512.248099-126.857937 794.275253-126.857937 1023.682851 102.287781 1023.682851 383.992986 1023.682851 665.659616 794.274083 894.843909 512.248099 894.843909L512.248099 894.843909ZM512.248099-53.555432C270.695278-53.555432 74.200795 142.750976 74.200795 383.991816 74.200795 625.268895 270.694107 821.539068 512.248099 821.539068 753.765813 821.539068 950.295406 625.270064 950.295406 383.991816 950.295406 142.750976 753.764643-53.555432 512.248099-53.555432L512.248099-53.555432Z"  horiz-adv-x="1024" />

    
    <glyph glyph-name="dishi" unicode="&#58964;" d="M504.7 716.2c-65.7 0-120.4-52.9-120.4-120.5 0-65.7 52.9-120.5 120.4-120.5 65.7 0 120.5 52.9 120.5 120.5-0.1 67.6-53 120.5-120.5 120.5z m0-580.4S220 453.4 220 610.3 347.7 895 504.7 895s284.7-127.8 284.7-284.7-284.7-474.5-284.7-474.5z m339.4 126l98.5 34.7v-251.9s-147.8-60.2-257.3-91.2L302.1 61l-219-85.8v250l94.9 25.6c-1.8 16.4-3.6 56.6-3.6 73L10.1 285.5v-410.6l54.8 18.3 237.2 89.4 383.2-107.7 328.5 107.7V393.2l-164.2-45.6c-1.8-18.3-1.8-56.6-5.5-85.8z m0 0"  horiz-adv-x="1024" />

    
    <glyph glyph-name="shurukuang" unicode="&#59092;" d="M635.328 160a32 32 0 0 1-32 32H96V544h507.2a32 32 0 1 1 0 64H64a32 32 0 0 1-32-32v-416a32 32 0 0 1 32-32h539.328a32 32 0 0 1 32 32zM960 608h-92.928a32 32 0 1 1 0-64H928v-352h-60.288a32 32 0 1 1 0-64H960a32 32 0 0 1 32 32V576a32 32 0 0 1-32 32zM832.672 48H768V688h64.288a32 32 0 1 1 0 64H639.36a32 32 0 1 1 0-64H704v-640h-64.64a32 32 0 1 1 0-64h193.28a32 32 0 1 1 0.032 64z"  horiz-adv-x="1024" />

    
    <glyph glyph-name="zuzhi" unicode="&#58965;" d="M601.062 689.143l-18.814 94.156H158.743v-800h94.156V312.786h263.453l18.882-94.161h329.348V689.143h-263.52z m0 0"  horiz-adv-x="1024" />

    
    <glyph glyph-name="xuqiuleixing" unicode="&#58966;" d="M132.647-125.236a39.384 39.384 0 0 0-53.878 36.627V817.231A78.769 78.769 0 0 0 157.538 896h708.918a78.769 78.769 0 0 0 78.769-78.769v-905.84a39.384 39.384 0 0 0-54.154-36.509L515.74 26.512l-383.092-151.748z m733.81 942.467h-708.92v-847.866l343.826 136.191a39.384 39.384 0 0 0 29.263-0.118l335.83-135.679V817.231zM295.382 699.078h433.228a19.692 19.692 0 0 0 19.692-19.692v-39.384a19.692 19.692 0 0 0-19.692-19.692H295.383a19.692 19.692 0 0 0-19.692 19.692v39.384a19.692 19.692 0 0 0 19.692 19.692z m0-196.921h433.228a19.692 19.692 0 0 0 19.692-19.693v-39.384a19.692 19.692 0 0 0-19.692-19.692H295.383a19.692 19.692 0 0 0-19.692 19.692v39.384a19.692 19.692 0 0 0 19.692 19.693z m0-196.922h433.228a19.692 19.692 0 0 0 19.692-19.692v-39.385a19.692 19.692 0 0 0-19.692-19.692H295.383a19.692 19.692 0 0 0-19.692 19.692v39.385a19.692 19.692 0 0 0 19.692 19.692z"  horiz-adv-x="1024" />

    
    <glyph glyph-name="button-upload" unicode="&#58967;" d="M743.01875 765.825A446.5125 446.5125 0 0 1 133.15625 612.99375a445.8375 445.8375 0 0 1 152.83125-609.6375c13.725-8.1 27.95625-15.24375 42.69375-21.375a30.65625 30.65625 0 0 1 13.1625-3.31875 30.15 30.15 0 0 1 27.84375 18.16875 27.675 27.675 0 0 1 0 23.00625 29.64375 29.64375 0 0 1-16.70625 18c-13.1625 6.6375-24.6375 13.1625-36.16875 19.6875a382.33125 382.33125 0 0 0-173.64375 235.125 374.85 374.85 0 0 0 42.6375 287.49375v1.6875a384.975 384.975 0 0 0 327.0375 183.375 373.66875 373.66875 0 0 0 195.6375-53.55 387.16875 387.16875 0 0 0 157.66875-471.65625c-7.70625-18-16.48125-35.60625-26.15625-52.65a379.125 379.125 0 0 0-169.3125-151.2 30.99375 30.99375 0 0 1-14.85-41.00625 30.65625 30.65625 0 0 1 28.0125-18.16875 39.375 39.375 0 0 1 13.1625 3.375 441.3375 441.3375 0 0 1 195.46875 175.8375 441.3375 441.3375 0 0 1-149.45625 609.6375z m-228.54375-754.3125a34.3125 34.3125 0 0 1-29.475-18 32.34375 32.34375 0 0 1 0-34.5375c6.525-10.0125 17.55-16.25625 29.475-16.65a34.9875 34.9875 0 0 1 29.7 18.16875 33.35625 33.35625 0 0 1 0 34.48125 37.0125 37.0125 0 0 1-29.7 16.5375z m134.83125 453.65625L542.4875 591.675a25.9875 25.9875 0 0 1-13.1625 13.1625 27.675 27.675 0 0 1-16.65 5.00625 30.99375 30.99375 0 0 1-16.65-5.0625c-5.0625-3.2625-10.0125-6.46875-11.53125-11.475L375.9875 463.48125a30.825 30.825 0 0 1-5.00625-31.1625c4.05-10.575 13.5-18.16875 24.69375-19.8h6.6375a35.49375 35.49375 0 0 1 24.69375 11.475l54.16875 66.65625v-299.98125a33.35625 33.35625 0 0 1 16.65-27.84375c4.89375-3.43125 10.6875-5.175 16.65-5.00625a34.14375 34.14375 0 0 1 33.35625 33.35625V491.15625l54.3375-64.125a34.875 34.875 0 0 1 24.6375-11.53125h4.8375a32.175 32.175 0 0 1 24.69375 21.375 28.6875 28.6875 0 0 1-7.03125 28.29375z"  horiz-adv-x="1024" />

    
    <glyph glyph-name="shanchu" unicode="&#58963;" d="M517.59 874.391c-100.299 0-181.703-79.514-185.167-179.34H98.603c-25.979 0-47.235-21.099-47.235-47.236 0-25.98 21.099-47.237 47.236-47.237h52.117v-528.416c0-99.196 67.233-180.285 150.37-180.285h423.55c82.98 0 150.37 80.616 150.37 180.285V600.263h47.236c25.98 0 47.236 21.1 47.236 47.237 0 25.98-21.099 47.236-47.236 47.236H702.441C699.449 794.876 617.888 874.39 517.59 874.39z m-96.677-179.34c3.464 51.172 45.19 90.85 96.834 90.85s93.37-39.835 96.362-90.85H420.913z m-119.98-714.842c-29.444 0-61.88 37.789-61.88 91.953V600.263h547.311V71.69c0-54.007-32.436-91.954-61.88-91.954H300.933v0.473z m0 0M364.387 93.733c21.57 0 39.363 21.571 39.363 48.653V419.978c0 27.082-17.635 48.654-39.363 48.654-21.572 0-39.364-21.572-39.364-48.654v-277.592c0-26.924 17.32-48.653 39.364-48.653z m142.496 0c21.571 0 39.363 21.571 39.363 48.653V419.978c0 27.082-17.635 48.654-39.363 48.654-21.571 0-39.364-21.572-39.364-48.654v-277.592c0-26.924 17.793-48.653 39.364-48.653z m149.896 0c21.571 0 39.364 21.571 39.364 48.653V419.978c0 27.082-17.635 48.654-39.364 48.654-21.571 0-39.363-21.572-39.363-48.654v-277.592c0-26.924 17.162-48.653 39.363-48.653z m0 0"  horiz-adv-x="1024" />

    
    <glyph glyph-name="riqi" unicode="&#59142;" d="M739.196 698c-7.092-14.786-22.202-24.996-39.696-24.996-17.494 0-32.604 10.21-39.696 24.996H351.196c-7.092-14.786-22.202-24.996-39.696-24.996-17.494 0-32.604 10.21-39.696 24.996H133c-24.3 0-44-19.7-44-44v-109.64a44.123 44.123 0 0 0 10.179 1.14L933 542.11V654c0 24.3-19.7 44-44 44H739.196z m4.304 88H889c72.902 0 132-59.098 132-132v-594c0-72.902-59.098-132-132-132H133C60.098-72 1-12.902 1 60V654c0 72.902 59.098 132 132 132h134.5V851c0 24.3 19.7 44 44 44s44-19.7 44-44v-65h300V851c0 24.3 19.7 44 44 44s44-19.7 44-44v-65zM89 458.642V60c0-24.3 19.7-44 44-44h756c24.3 0 44 19.7 44 44V454.109L98.821 457.5A44.142 44.142 0 0 0 89 458.642zM274 174.5c-24.3 0-44 19.7-44 44s19.7 44 44 44h471.114c24.3 0 44-19.7 44-44s-19.7-44-44-44H274z"  horiz-adv-x="1024" />

    
    <glyph glyph-name="xiala1" unicode="&#58956;" d="M0 768.380142C0 838.862643 57.24888 896 127.619858 896L896.380141 896C966.862643 896 1024 838.75112 1024 768.380142L1024-0.380141C1024-70.862643 966.751117-128 896.380141-128L127.619858-128C57.137357-128 0-70.751117 0-0.380141L0 768.380142ZM466.876563 214.281901C491.88828 184.777472 532.093696 184.368627 557.452004 214.281901L818.802669 522.577504C843.814387 552.081934 832.018349 576 794.029114 576L230.299453 576C191.605677 576 180.167588 552.49078 205.525895 522.577504L466.876563 214.281901Z"  horiz-adv-x="1024" />

    
    <glyph glyph-name="tijiao" unicode="&#58959;" d="M82.62144 365.24032l302.93504-323.94752c9.2416-9.8816 26.98752-10.01984 36.20352 0 170.38336 185.25184 340.85376 370.51392 511.32416 555.76576l37.50912 40.76032c22.31296 24.24832-13.7984 60.54912-36.1984 36.20352-170.4704-185.25184-340.9408-370.51392-511.32416-555.76064l-37.51424-40.77056h36.20352c-100.98176 107.99104-201.9584 215.97184-302.93504 323.97312-22.59456 24.16128-58.72128-12.11904-36.20352-36.224z"  horiz-adv-x="1024" />

    
    <glyph glyph-name="duohangwenben" unicode="&#58984;" d="M760.32 273.92a12.8 12.8 0 0 1-13.824-2.56l-153.6-153.6a12.8 12.8 0 0 1 9.216-22.016h153.6a12.8 12.8 0 0 1 12.8 12.8v153.6a12.8 12.8 0 0 1-8.192 11.776zM768 742.4H256a128 128 0 0 1-128-128v-512A128 128 0 0 1 256-25.6h512a128 128 0 0 1 128 128v512A128 128 0 0 1 768 742.4z m76.8-640A76.8 76.8 0 0 0 768 25.6H256a76.8 76.8 0 0 0-76.8 76.8v512A76.8 76.8 0 0 0 256 691.2h512a76.8 76.8 0 0 0 76.8-76.8zM307.2 497.152h409.6a25.6 25.6 0 0 1 0 51.2H307.2a25.6 25.6 0 0 1 0-51.2zM307.2 328.704h409.6a25.6 25.6 0 0 1 0 51.2H307.2a25.6 25.6 0 0 1 0-51.2zM512 210.944H307.2a25.6 25.6 0 0 1 0-51.2h204.8a25.6 25.6 0 0 1 0 51.2z"  horiz-adv-x="1024" />

    
    <glyph glyph-name="xingmingzhengjian" unicode="&#58960;" d="M963.764706 896H60.235294a60.235294 60.235294 0 0 1-60.235294-60.235294v-903.529412a60.235294 60.235294 0 0 1 60.235294-60.235294h903.529412a60.235294 60.235294 0 0 1 60.235294 60.235294V835.764706a60.235294 60.235294 0 0 1-60.235294 60.235294z m0-963.764706H60.235294V835.764706h903.529412zM843.294118 68.668235a304.489412 304.489412 0 0 1-218.955294 283.105883 191.247059 191.247059 0 1 1-224.677648 0A304.489412 304.489412 0 0 1 180.705882 68.668235v-30.117647h662.588236zM380.988235 506.277647A131.011765 131.011765 0 1 0 512 375.265882a131.011765 131.011765 0 0 0-131.011765 131.011765zM243.049412 98.785882c16.865882 118.663529 131.011765 210.823529 268.950588 210.82353s252.385882-92.16 268.950588-210.82353z"  horiz-adv-x="1024" />

    
    <glyph glyph-name="duoxuan" unicode="&#59034;" d="M790.754133 802.133333C867.733333 802.133333 930.133333 739.733333 930.133333 662.754133v-557.508266C930.133333 28.266667 867.733333-34.133333 790.754133-34.133333H233.245867C156.266667-34.133333 93.866667 28.266667 93.866667 105.245867V662.754133C93.866667 739.733333 156.266667 802.133333 233.245867 802.133333h557.508266zM473.6 300.522667L296.2176 477.905067a40.533333 40.533333 0 1 1-57.322667-57.322667l205.154134-205.154133a40.695467 40.695467 0 0 1 6.656-5.3888c15.799467-10.961067 37.653333-9.403733 51.733333 4.676266l304.712533 304.712534a40.533333 40.533333 0 1 1-57.322666 57.322666L473.6 300.522667z"  horiz-adv-x="1024" />

    
    <glyph glyph-name="danxuan" unicode="&#59037;" d="M512 853.333333c259.2 0 469.333333-210.133333 469.333333-469.333333s-210.133333-469.333333-469.333333-469.333333S42.666667 124.8 42.666667 384 252.8 853.333333 512 853.333333z m0-55.466666c-230.9248 0-418.133333-186.2528-418.133333-416S281.0752-34.133333 512-34.133333s418.133333 186.2528 418.133333 416S742.9248 797.866667 512 797.866667z m0-106.666667c169.659733 0 307.2-137.540267 307.2-307.2s-137.540267-307.2-307.2-307.2-307.2 137.540267-307.2 307.2 137.540267 307.2 307.2 307.2z"  horiz-adv-x="1024" />

    
    <glyph glyph-name="shijianbianjiwodeqianfenleishouye" unicode="&#58962;" d="M520.634182-50.362182c-242.734545 0-440.203636 197.469091-440.203637 440.203637S277.899636 830.045091 520.634182 830.045091s440.226909-197.469091 440.226909-440.203636-197.492364-440.203636-440.226909-440.203637z m0 840.424727c-220.672 0-400.197818-179.525818-400.197818-400.22109 0-220.672 179.525818-400.221091 400.197818-400.221091 220.695273 0 400.221091 179.549091 400.221091 400.221091 0 220.695273-179.525818 400.221091-400.221091 400.22109zM503.668364 621.102545h39.982545v-231.237818h-39.982545zM503.621818 389.794909l28.253091 28.276364 129.722182-129.722182-28.276364-28.276364z"  horiz-adv-x="1024" />

    
    <glyph glyph-name="Typetool" unicode="&#58998;" d="M853.32992 793.6H170.67008C133.13024 793.6 102.4 762.88 102.4 725.34016v-682.65984C102.4 5.14048 133.13024-25.6 170.67008-25.6h682.65984C890.86976-25.6 921.6 5.14048 921.6 42.68032V725.34016C921.6 762.88 890.86976 793.6 853.32992 793.6z m-102.4-307.2h-68.25984v68.28032H546.12992v-341.34016H614.4v-68.25984H409.6v68.25984h68.27008V554.68032H341.32992V486.4h-68.25984V588.8A34.12992 34.12992 0 0 0 307.2 622.94016h409.6A34.0992 34.0992 0 0 0 750.92992 588.8v-102.4z"  horiz-adv-x="1024" />

    
    <glyph glyph-name="fankui" unicode="&#59192;" d="M800.037628-64.010751 223.962372-64.010751c-52.980346 0-95.983874 43.003528-95.983874 95.983874l0 639.892491c0 52.980346 43.003528 95.983874 95.983874 95.983874l447.924744 0c17.717453 0 31.994625-14.277171 31.994625-31.994625s-14.277171-31.994625-31.994625-31.994625L223.962372 703.860239c-17.545439 0-31.994625-14.449185-31.994625-31.994625l0-639.892491c0-17.717453 14.449185-31.994625 31.994625-31.994625l575.903242 0c17.717453 0 31.994625 14.277171 31.994625 31.994625L831.860239 544.05913c0 17.717453 14.277171 31.994625 31.994625 31.994625 17.717453 0 31.994625-14.277171 31.994625-31.994625l0-511.913993C896.021502-20.835209 852.84596-64.010751 800.037628-64.010751zM612.026205 448.075256c-8.256677 0-16.341341 3.096254-22.705863 9.460776-12.55703 12.55703-12.55703 32.682681 0 45.239711L907.374433 820.65782c12.55703 12.55703 32.682681 12.55703 45.239711 0s12.55703-32.682681 0-45.239711L634.560054 457.364018C628.367546 451.17151 620.110868 448.075256 612.026205 448.075256zM479.919368 448.075256 287.951621 448.075256c-17.717453 0-31.994625 14.277171-31.994625 31.994625s14.277171 31.994625 31.994625 31.994625L479.919368 512.064505c17.717453 0 31.994625-14.277171 31.994625-31.994625C511.913993 462.352427 497.636822 448.075256 479.919368 448.075256zM672.05913 256.107509 287.951621 256.107509c-17.717453 0-31.994625 14.277171-31.994625 31.994625s14.277171 31.994625 31.994625 31.994625l383.935495 0c17.717453 0 31.994625-14.277171 31.994625-31.994625S689.604569 256.107509 672.05913 256.107509z"  horiz-adv-x="1024" />

    
    <glyph glyph-name="yonghu3" unicode="&#58953;" d="M735.342 237.473c-51.84 0-94.018-42.192-94.018-94.032 0-51.849 42.178-94.042 94.018-94.042 51.854 0 94.032 42.192 94.032 94.042 0 51.84-42.178 94.032-94.032 94.032zM735.342 97.856c-25.134 0-45.577 20.452-45.577 45.586 0 25.125 20.442 45.577 45.577 45.577 25.139 0 45.591-20.452 45.591-45.577 0-25.134-20.452-45.586-45.591-45.586zM983.952 192.569c-3.529 18.62-15.476 30.656-30.818 30.656l-2.128 0c-29.348 0-53.241 23.878-53.241 53.222 0 7.706 3.37 17.173 4.65 20.14 7.266 16.367 1.673 36.452-14.475 47.635l-62.249 34.467c-4.878 2.105-10.149 3.181-15.671 3.181-11.276 0-22.417-4.595-29.798-12.245-7.757-7.993-28.352-24.489-42.539-24.489-14.317 0-35.042 16.817-42.813 24.93-7.418 7.84-18.662 12.523-30.063 12.523-5.462 0-10.655-1.043-15.319-3.06l-1.163-0.477-63.348-34.792-1.507-0.974c-14.725-10.247-20.349-30.323-13.131-46.545 0.482-1.159 4.716-11.461 4.716-20.294 0-29.344-23.887-53.222-53.25-53.222l-2.481 0c-14.968 0-26.926-12.037-30.452-30.675-0.538-2.865-5.253-28.612-5.253-49.425 0-20.822 4.716-46.564 5.253-49.457 3.526-18.615 15.473-30.652 30.823-30.652l2.105 0c29.362 0 53.255-23.883 53.255-53.222 0-7.706-3.37-17.173-4.65-20.145-7.256-16.343-1.683-36.41 14.41-47.631l61.076-34.031c4.868-2.114 10.14-3.208 15.676-3.208 11.48 0 22.742 4.804 30.1 12.829 7.521 8.165 28.881 26.047 43.471 26.047 14.744 0 35.863-17.92 43.759-26.581 7.409-8.165 18.745-13.033 30.318-13.033 5.443 0 10.627 1.043 16.927 3.834l61.753 34.119 1.479 0.979c14.707 10.223 20.317 30.28 13.107 46.522-0.482 1.163-4.716 11.461-4.716 20.299 0 29.339 23.891 53.222 53.241 53.222l2.452 0c14.999 0 26.961 12.037 30.475 30.606 0.046 0.26 5.267 27.606 5.267 49.504 0 20.813-4.711 46.559-5.248 49.443zM937.677 110.602c-50.143-6.561-88.347-49.378-88.347-100.806 0-11.874 2.865-23.15 5.388-30.782l-44.561-24.634c-4.006 3.927-10.4 9.811-18.323 15.685-19.696 14.614-38.775 22.051-56.69 22.051-17.767 0-36.693-7.293-56.268-21.638-7.808-5.74-14.137-11.434-18.207-15.379l-42.595 23.831c2.527 7.645 5.415 18.991 5.415 30.865 0 51.428-38.195 94.245-88.343 100.806-1.284 8.3-3.083 21.829-3.083 32.525 0 10.743 1.79 24.234 3.083 32.511 50.138 6.565 88.343 49.392 88.343 100.81 0 11.842-2.865 23.113-5.383 30.749l45.994 25.241c3.992-3.756 10.395-9.408 18.263-15.008 19.311-13.765 37.931-20.752 55.322-20.752 17.22 0 35.682 6.853 54.863 20.363 7.803 5.481 14.123 10.96 18.147 14.697l44.042-24.472c-2.522-7.641-5.402-18.945-5.402-30.818 0-51.427 38.19-94.245 88.334-100.81 1.313-8.448 3.097-21.912 3.097-32.52-0.001-10.678-1.78-24.1-3.088-32.515zM97.657-27.078l0 53.25c0 181.054 139.622 330.267 317.506 347.084l-0.077 0.037c0 0 0.179 0 0.464-0.009 10.905 1.025 21.937 1.599 33.106 1.599 1.681 0 3.338-0.093 5.012-0.112 39.34 3.051 98.868 12.294 129.979 40.063l15.226 11.867c59.477 46.446 93.592 115.835 93.592 190.362 0 133.547-109.388 242.188-243.856 242.188s-243.855-108.641-243.855-242.187c0-74.528 34.117-143.917 93.593-190.362l15.221-11.867-17.935-7.121c-158.446-62.908-260.828-212.669-260.828-381.543l0-84.402c0-17.182 14.088-31.162 31.421-31.162l459.157 0c-14.948 19.144-27.689 40.027-37.988 62.314l-389.736 0zM267.606 617.065c0 99.188 81.193 179.878 181.001 179.878 99.806 0 181.013-80.69 181.013-179.878 0-99.189-81.207-179.876-181.013-179.876-99.808 0.001-181.001 80.686-181.001 179.876z"  horiz-adv-x="1024" />

    
    <glyph glyph-name="kehuguanli" unicode="&#59014;" d="M179.533-27.898000000000025c-16.695 0-30.28 13.477-30.28 30.042l0 73.633c0 73.549 22.248 144.358 64.337 204.765 41.103 58.99 98.167 104.2 165.023 130.736l11.004 4.369-9.333 7.286c-52.604 41.058-82.773 102.408-82.773 168.321 0 118.071 96.718 214.131 215.602 214.131 118.88 0 215.599-96.061 215.599-214.131 0-65.911-30.169-127.261-82.773-168.321l-9.333-7.286 11.003-4.369c66.864-26.537 123.926-71.74 165.026-130.721 42.088-60.401 64.334-131.216 64.332-204.778l0-73.633c0-16.565-13.583-30.042-30.28-30.042L179.533-27.898000000000025 179.533-27.898000000000025zM513.149 377.121c-167.257 0-303.328-135.185-303.328-301.344l0-43.599 606.583 0 0 43.599C816.404 241.93499999999995 680.364 377.121 513.149 377.121L513.149 377.121zM513.114 745.308c-85.487 0-155.039-69.111-155.039-154.061 0-84.947 69.551-154.056 155.039-154.056 85.487 0 155.038 69.108 155.038 154.056C668.153 676.198 598.603 745.308 513.114 745.308L513.114 745.308zM31.28 82.55999999999995C14.585 82.55999999999995 1 96.03599999999994 1 112.59799999999996l0 56.959c0 108.049 59.671 205.87 155.726 255.289l7.884 4.057-5.977 6.55c-29.948 32.813-46.442 75.054-46.442 118.94 0 96.757 78.415 175.664 175.428 177.321-0.619-0.988-1.233-1.978-1.842-2.972-14.949-19.55-26.523-41.142-34.441-64.232-47.146-16.638-78.582-60.463-78.582-110.115 0-45.844 27.198-87.734 69.289-106.719l0.199-0.09 0.203-0.077c12.537-4.716 20.638-15.59 20.638-27.703 0-12.412-8.711-23.674-21.711-28.102l-6.939-1.647C132.611 364.51700000000005 61.556 273.852 61.556 169.55700000000002l0-26.926 35.378 0c-3.603-19.783-5.606-39.925-5.973-60.073L31.279 82.55799999999999 31.28 82.55999999999995zM934.866 82.56500000000005c-0.366 20.149-2.37 40.29-5.972 60.067l35.373 0 0 26.926c0 104.297-71.055 194.961-172.796 220.479l-7.017 1.666c-12.993 4.427-21.703 15.688-21.703 28.103 0 12.11 8.102 22.985 20.635 27.703l0.203 0.075 0.196 0.09c42.095 18.985 69.294 60.875 69.294 106.719 0 49.657-31.439 93.481-78.592 110.115-7.911 23.095-19.487 44.687-34.437 64.241-0.608 0.995-1.224 1.982-1.843 2.968 97.016-1.657 175.43-80.566 175.43-177.326 0-43.894-16.492-86.134-46.441-118.939l-5.979-6.55 7.889-4.059c96.056-49.418 155.724-147.239 155.719-255.289l0-56.96c0-16.558-13.581-30.03-30.277-30.03l-59.681 0L934.866 82.56500000000005z"  horiz-adv-x="1025" />

    
    <glyph glyph-name="woderenwu" unicode="&#58954;" d="M868.28 804H155.72a120 120 0 0 1-120-120v-600a120 120 0 0 1 120-120h712.56a120 120 0 0 1 120 120V684a120 120 0 0 1-120 120zM932 121.91999999999996c0-49.68-40.32-96-90-96H185.66c-49.74 0-93.72 46.32-93.72 96V650.7c0 49.68 43.98 96 93.72 96h656.22c49.68 0 90.06-46.32 90.06-96v-528.78zM812 529.9200000000001H461.72a30 30 0 1 1 0-60H812a30 30 0 1 1 0 60zM812 297.41999999999996H461.72a30 30 0 1 1 0-60H812a30 30 0 1 1 0 60zM359.96 585L260.18 484.44l-54.24 46.2a26.52 26.52 0 1 1-34.38-40.26l71.88-61.32a26.22 26.22 0 0 1 20.04-6 27.12 27.12 0 0 1 21 7.8l114.48 115.26a27.48 27.48 0 1 1-39 38.76zM268.52 320.88a66.9 66.9 0 1 1 0-133.8 66.9 66.9 0 0 1 0 133.8z m0-87.36a20.52 20.52 0 1 0 0 40.98 20.52 20.52 0 0 0 0-40.98z"  horiz-adv-x="1024" />

    
    <glyph glyph-name="changjingguanli" unicode="&#60258;" d="M592 560h-416c-52.928 0-96-43.072-96-96v-416c0-52.928 43.072-96 96-96h416c52.928 0 96 43.072 96 96v416c0 52.928-43.072 96-96 96z m32-512a32 32 0 0 0-32-32h-416c-17.632 0-32 14.336-32 32v416c0 17.632 14.368 32 32 32h416c17.664 0 32-14.368 32-32v-416zM720 688h-416a32 32 0 0 1 0-64h416c17.664 0 32-14.368 32-32v-416a32 32 0 1 1 64 0v416c0 52.928-43.072 96-96 96zM528 144h-288a32 32 0 1 1 0-64h288a32 32 0 1 1 0 64zM848 816h-416a32 32 0 0 1 0-64h416c17.664 0 32-14.368 32-32v-416a32 32 0 1 1 64 0v416c0 52.928-43.072 96-96 96z"  horiz-adv-x="1024" />

    
    <glyph glyph-name="ceshishenqing" unicode="&#60257;" d="M607.232 0a32 32 0 1 0 0-64H192a96 96 0 0 0-96 96V736a96 96 0 0 0 96 96h544a96 96 0 0 0 96-96 32 32 0 0 0-64 0 32 32 0 0 1-32 32H192a32 32 0 0 1-32-32v-704a32 32 0 0 1 32-32h415.232zM832 310.24v-146.656c0-42.656-64-42.656-64 0v146.656c0 42.688 64 42.688 64 0zM288 576a32 32 0 1 0 0 64h224a32 32 0 0 0 0-64H288zM288 416a32 32 0 0 0 0 64h128a32 32 0 0 0 0-64H288zM639.424-30.592a32 32 0 1 0-64 0L576 96a96 96 0 0 0 96 96l127.744-1.152a32 32 0 1 0 0-64L672 128a32 32 0 0 1-32-32l-0.576-126.592zM637.92-51.648a32 32 0 1 0-44.32 46.208l180.384 172.992a32 32 0 1 0 44.288-46.176l-180.352-173.024zM880.896 561.472a31.424 31.424 0 0 1 3.328 44.416l-0.416 0.512a32 32 0 0 1-44.896 3.36L408.32 243.712l-15.2-51.84 58.336 4.544 429.44 365.056z m51.616 86.4a95.36 95.36 0 0 0-9.408-134.496l-438.08-372.448a32 32 0 0 0-18.24-7.52l-114.944-8.896a32 32 0 0 0-33.184 40.928l30.944 105.472a32 32 0 0 0 9.984 15.36L797.408 658.496a96 96 0 0 0 134.688-10.112l0.416-0.512z"  horiz-adv-x="1024" />

    
    <glyph glyph-name="shujukanban" unicode="&#60262;" d="M979.2 737.152a32 32 0 0 1-38.4 23.936l-166.848-38.656a32 32 0 0 1-15.808-53.408L794.56 631.36l-194.56-173.568-101.024 95.68a32 32 0 0 1-45.152-1.152l-216.736-227.264A64 64 0 1 1 288 262.4c0 6.944-1.376 13.472-3.424 19.712l193.536 202.944 99.232-93.952a32 32 0 0 1 43.296-0.64L839.04 585.28l41.504-42.976a32 32 0 0 1 53.92 13.92l44.448 165.408a31.84 31.84 0 0 1 0.288 15.52zM928 445.536a32 32 0 0 1-32-32V160a32 32 0 0 0-32-32H160a32 32 0 0 0-32 32V736a32 32 0 0 0 32 32h530.656a32 32 0 0 1 0 64H160a96 96 0 0 1-96-96v-576a96 96 0 0 1 96-96h704a96 96 0 0 1 96 96v253.536a32 32 0 0 1-32 32zM912 0h-800a32 32 0 0 1 0-64h800a32 32 0 0 1 0 64z"  horiz-adv-x="1024" />

    
    <glyph glyph-name="yuanquyunwei" unicode="&#60264;" d="M662.624 224.224a31.968 31.968 0 1 1-45.248-45.248l112-112a31.968 31.968 0 1 1 45.248 45.248l-112 112zM712.896 324.384a247.36 247.36 0 0 1-334.112 269.568 31.968 31.968 0 0 1-11.008-52.448l97.824-97.824a31.968 31.968 0 0 0 0-45.248l-31.328-31.328a31.968 31.968 0 0 0-45.248 0L290.88 465.248a32 32 0 0 1-52.384-10.848 247.36 247.36 0 0 1 268-335.456l145.824-145.824a145.6 145.6 0 1 1 205.92 205.92l-145.344 145.344z m100.096-306.016a81.6 81.6 0 0 0-115.392 0l-170.336 170.336-17.28-4a183.36 183.36 0 0 0-224.032 194.944l57.824-57.824a96 96 0 0 1 135.776 0l31.328 31.328a96 96 0 0 1 0 135.776l-57.248 57.248a183.36 183.36 0 0 0 193.472-225.024l-4.096-17.376 170.016-170.016c31.808-31.872 31.808-83.52-0.032-115.392zM944.672 472.672l-363.2 363.2a96.096 96.096 0 0 1-135.776 0l-363.2-363.2a96.032 96.032 0 0 1 15.104-148.064V0c0-52.928 43.072-96 96-96h320a32 32 0 1 1 0 64h-320c-17.632 0-32 14.336-32 32V344.256c0 13.664-8.672 25.824-21.6 30.272a32 32 0 0 0-12.256 52.896l363.2 363.2a32.064 32.064 0 0 0 45.28 0l363.2-363.232c6.048-6.016 9.376-14.048 9.376-22.624a31.808 31.808 0 0 0-21.6-30.24 32.032 32.032 0 0 1-21.632-30.272v-76.544a32 32 0 1 1 64 0v56.864a95.456 95.456 0 0 1 43.232 80.192c0 25.664-9.984 49.792-28.128 67.904z"  horiz-adv-x="1024" />

    
    <glyph glyph-name="icon_wangye" unicode="&#60300;" d="M896 832H128a64 64 0 0 1-64-64v-768a64 64 0 0 1 64-64h768a64 64 0 0 1 64 64V768a64 64 0 0 1-64 64zM128 768h768v-192H128V768z m768-768H128V512h768v-512zM256 320h512a32 32 0 0 1 0 64H256a32 32 0 0 1 0-64zM256 160h512a32 32 0 0 1 0 64H256a32 32 0 0 1 0-64zM768 704h-64a32 32 0 0 1 0-64h64a32 32 0 0 1 0 64z"  horiz-adv-x="1024" />

    
    <glyph glyph-name="icon_shiyongwendang" unicode="&#60305;" d="M288 576a32 32 0 1 0 0 64h448a32 32 0 0 0 0-64H288zM288 352a32 32 0 0 0 0 64h448a32 32 0 0 0 0-64H288zM288 128a32 32 0 0 0 0 64h128a32 32 0 0 0 0-64H288zM807.968 93.76a32 32 0 0 0 41.984-48.32l-153.856-133.6a32 32 0 0 0-20.992-7.84H195.04C140.16-96 96-50.624 96 4.928V763.072C96 818.624 140.16 864 195.04 864h633.92C883.84 864 928 818.624 928 763.072v-564.32a32 32 0 1 0-64 0V763.072C864 783.68 848.096 800 828.96 800H195.04C175.904 800 160 783.68 160 763.072v-758.144C160-15.68 175.904-32 195.04-32h468.096l144.832 125.76zM704-63.136a32 32 0 1 0-64 0v186.24C640 178.592 684.16 224 739.04 224h157.632a32 32 0 0 0 0-64h-157.632c-19.136 0-35.04-16.32-35.04-36.928v-186.24z"  horiz-adv-x="1024" />

    
    <glyph glyph-name="tubiao-bingtu" unicode="&#60310;" d="M896 416c-1.344 0-2.464-0.608-3.744-0.768-1.28 0.16-2.432 0.768-3.744 0.768H544V764c0 0.704-0.352 1.312-0.416 2.016 0.064 0.672 0.416 1.28 0.416 1.984a32 32 0 0 1-32 32C282.624 800 96 613.376 96 384s186.624-416 416-416 416 186.624 416 416a32 32 0 0 1-32 32zM512 32C317.92 32 160 189.92 160 384 160 567.296 300.864 718.144 480 734.368V384a32 32 0 0 1 32-32h350.368C846.144 172.864 695.296 32 512 32zM625.664 717.28a355.36 355.36 0 0 0 216.832-211.84 32 32 0 1 1 60.064 22.048 414.24 414.24 0 0 1-256.224 250.336 31.968 31.968 0 1 1-20.672-60.544z"  horiz-adv-x="1024" />

    
    <glyph glyph-name="tubiao-qiapian" unicode="&#60309;" d="M928 736H96a32 32 0 0 1-32-32v-672a32 32 0 0 1 32-32h832a32 32 0 0 1 32 32V704a32 32 0 0 1-32 32z m-32-672H128V672h768v-608zM230.592 447.904H544a32 32 0 1 1 0 64H230.592a32 32 0 0 1 0-64zM230.592 255.904H544a32 32 0 1 1 0 64H230.592a32 32 0 1 1 0-64zM768 192a32 32 0 0 1 32 32V545.984a32 32 0 1 1-64 0V224a32 32 0 0 1 32-32z"  horiz-adv-x="1024" />

    
    <glyph glyph-name="tubiao-zhuzhuangtu" unicode="&#60312;" d="M896 0H96a32 32 0 0 0-32 32V672a32 32 0 0 0 64 0v-608h768a32 32 0 1 0 0-64zM512 143.84a32 32 0 0 0-32 32V545.376a32 32 0 0 0 64 0v-369.536a32 32 0 0 0-32-32zM320 143.424a32 32 0 0 0-32 32V384a32 32 0 0 0 64 0v-208.576a32 32 0 0 0-32-32zM896 143.328a32 32 0 0 0-32 32V732.512a32 32 0 1 0 64 0v-557.184a32 32 0 0 0-32-32zM704 143.264a32 32 0 0 0-32 32V672a32 32 0 1 0 64 0v-496.736a32 32 0 0 0-32-32z"  horiz-adv-x="1024" />

    
    <glyph glyph-name="fabu" unicode="&#60425;" d="M864 768h-56.64a32 32 0 0 1 0-64H864a32 32 0 0 0 32-32v-640a32 32 0 0 0-32-32H160a32 32 0 0 0-32 32V672a32 32 0 0 0 32 32h62.272a32 32 0 0 1 0 64H160a96 96 0 0 1-96-96v-640a96 96 0 0 1 96-96h704a96 96 0 0 1 96 96V672a96 96 0 0 1-96 96zM341.216 587.68L480 710.688V208a32 32 0 0 1 64 0V710.688l138.784-123.008a32.032 32.032 0 0 1 42.464 47.904l-192 170.208a32 32 0 0 1-42.464 0l-192-170.208a32 32 0 1 1 42.432-47.904z"  horiz-adv-x="1024" />

    
    <glyph glyph-name="project" unicode="&#59288;" d="M264.53333333 128h85.33333334c4.69333333 0 8.53333333 3.84 8.53333333 8.53333333V631.46666667c0 4.69333333-3.84 8.53333333-8.53333333 8.53333333h-85.33333334c-4.69333333 0-8.53333333-3.84-8.53333333-8.53333333v-494.93333334c0-4.69333333 3.84-8.53333333 8.53333333-8.53333333zM469.33333333 426.66666667h85.33333334c4.69333333 0 8.53333333 3.84 8.53333333 8.53333333V631.46666667c0 4.69333333-3.84 8.53333333-8.53333333 8.53333333h-85.33333334c-4.69333333 0-8.53333333-3.84-8.53333333-8.53333333v-196.26666667c0-4.69333333 3.84-8.53333333 8.53333333-8.53333333zM674.13333333 349.86666667h85.33333334c4.69333333 0 8.53333333 3.84 8.53333333 8.53333333V631.46666667c0 4.69333333-3.84 8.53333333-8.53333333 8.53333333h-85.33333334c-4.69333333 0-8.53333333-3.84-8.53333333-8.53333333v-273.06666667c0-4.69333333 3.84-8.53333333 8.53333333-8.53333333zM904.53333333 810.66666667H119.46666667c-18.88 0-34.13333333-15.25333333-34.13333334-34.13333334v-785.06666666c0-18.88 15.25333333-34.13333333 34.13333334-34.13333334h785.06666666c18.88 0 34.13333333 15.25333333 34.13333334 34.13333334V776.53333333c0 18.88-15.25333333 34.13333333-34.13333334 34.13333334z m-42.66666666-776.53333334H162.13333333V733.86666667h699.73333334v-699.73333334z"  horiz-adv-x="1024" />

    
    <glyph glyph-name="filedone" unicode="&#59316;" d="M699.73333333 597.33333333v51.2c0 4.69333333-3.84 8.53333333-8.53333333 8.53333334H281.6c-4.69333333 0-8.53333333-3.84-8.53333333-8.53333334v-51.2c0-4.69333333 3.84-8.53333333 8.53333333-8.53333333h409.6c4.69333333 0 8.53333333 3.84 8.53333333 8.53333333zM281.6 503.46666667c-4.69333333 0-8.53333333-3.84-8.53333333-8.53333334v-51.2c0-4.69333333 3.84-8.53333333 8.53333333-8.53333333h196.26666667c4.69333333 0 8.53333333 3.84 8.53333333 8.53333333v51.2c0 4.69333333-3.84 8.53333333-8.53333333 8.53333334H281.6zM682.66666667 379.73333333000005c-127.25333333 0-230.4-103.14666667-230.4-230.4s103.14666667-230.4 230.4-230.4 230.4 103.14666667 230.4 230.4-103.14666667 230.4-230.4 230.4z m114.66666666-345.06666666C766.72 4.053333329999987 725.97333333-12.799999999999955 682.66666667-12.799999999999955s-84.05333333 16.85333333-114.66666667 47.46666667C537.38666667 65.27999999999997 520.53333333 106.02666667000005 520.53333333 149.33333332999996s16.85333333 84.05333333 47.46666667 114.66666667C598.61333333 294.61333333000005 639.36 311.46666667 682.66666667 311.46666667s84.05333333-16.85333333 114.66666666-47.46666667C827.94666667 233.38666666999995 844.8 192.64 844.8 149.33333332999996s-16.85333333-84.05333333-47.46666667-114.66666666zM777.6 230.39999999999998h-47.25333333c-2.77333333 0-5.33333333-1.28-6.93333334-3.52l-67.73333333-93.65333333-24.64 34.02666666c-1.6 2.24-4.16 3.52-6.93333333 3.52H577.06666667c-6.93333333 0-10.98666667-7.89333333-6.93333334-13.54666666l78.72-108.90666667c3.41333333-4.69333333 10.34666667-4.69333333 13.76 0l121.81333334 168.53333333c4.16 5.65333333 0.10666667 13.54666667-6.82666667 13.54666667zM435.2 21.33333332999996H187.73333333V772.26666667h597.33333334v-366.93333334c0-4.69333333 3.84-8.53333333 8.53333333-8.53333333h59.73333333c4.69333333 0 8.53333333 3.84 8.53333334 8.53333333V814.93333333c0 18.88-15.25333333 34.13333333-34.13333334 34.13333334H145.06666667c-18.88 0-34.13333333-15.25333333-34.13333334-34.13333334v-836.26666666c0-18.88 15.25333333-34.13333333 34.13333334-34.13333334h290.13333333c4.69333333 0 8.53333333 3.84 8.53333333 8.53333334v59.73333333c0 4.69333333-3.84 8.53333333-8.53333333 8.53333333z"  horiz-adv-x="1024" />

    
    <glyph glyph-name="file-image" unicode="&#59319;" d="M555.84 387.09333333l-82.98666667-105.81333333-43.84 55.89333333c-3.41333333 4.37333333-10.02666667 4.37333333-13.44 0l-106.45333333-135.68c-4.37333333-5.54666667-0.42666667-13.76 6.72-13.76H708.26666667c7.14666667 0 11.09333333 8.21333333 6.72 13.76l-145.6 185.6c-3.52 4.37333333-10.13333333 4.37333333-13.54666667 0zM392.53333333 458.66666667m-42.66666666 0a42.66666667 42.66666667 0 1 1 85.33333333 0 42.66666667 42.66666667 0 1 1-85.33333333 0ZM877.44 622.29333333L647.89333333 851.84c-6.4 6.4-15.04 10.02666667-24.10666666 10.02666667H170.66666667c-18.88 0-34.13333333-15.25333333-34.13333334-34.13333334v-887.46666666c0-18.88 15.25333333-34.13333333 34.13333334-34.13333334h682.66666666c18.88 0 34.13333333 15.25333333 34.13333334 34.13333334V598.0799999999999c0 9.06666667-3.62666667 17.81333333-10.02666667 24.21333333zM808.74666667 582.4H608V783.1466666700001L808.74666667 582.4z m1.92-599.46666667H213.33333333V785.06666667h322.13333334v-230.4c0-24.74666667 20.05333333-44.8 44.8-44.8h230.4v-526.93333334z"  horiz-adv-x="1024" />

    
    <glyph glyph-name="Batchfolding" unicode="&#59327;" d="M785.06666667 693.47555555H93.29777778c-20.13866667 0-36.40888889-16.27022222-36.40888889-36.40888888v-691.76888889c0-20.13866667 16.27022222-36.40888889 36.40888889-36.40888889h691.76888889c20.13866667 0 36.40888889 16.27022222 36.40888888 36.40888889V657.06666667c0 20.13866667-16.27022222 36.40888889-36.40888888 36.40888888z m-45.51111112-682.66666666H138.80888889V611.55555555h600.74666666v-600.74666666zM930.70222222 839.11111111H229.83111111c-5.00622222 0-9.10222222-4.096-9.10222222-9.10222222v-63.71555556c0-5.00622222 4.096-9.10222222 9.10222222-9.10222222h655.36v-655.36c0-5.00622222 4.096-9.10222222 9.10222222-9.10222222h63.71555556c5.00622222 0 9.10222222 4.096 9.10222222 9.10222222V802.70222222c0 20.13866667-16.27022222 36.40888889-36.40888889 36.40888889zM270.79111111 340.76444445000004h336.78222222v-72.81777778H270.79111111z"  horiz-adv-x="1024" />

    
    <glyph glyph-name="shebeizhuangtai" unicode="&#60451;" d="M864 832H160a96 96 0 0 1-96-96v-576a96 96 0 0 1 96-96h320v-64H256a32 32 0 0 1 0-64h512a32 32 0 0 1 0 64h-224v64h320a96 96 0 0 1 96 96V736a96 96 0 0 1-96 96zM160 768h704a32 32 0 0 0 32-32v-448H128V736a32 32 0 0 0 32 32z m736-608a32 32 0 0 0-32-32H160a32 32 0 0 0-32 32v64h768v-64z"  horiz-adv-x="1024" />

    
    <glyph glyph-name="youhui" unicode="&#60470;" d="M955.008 762.144a64 64 0 0 1-56.736 56.704L551.456 856.416a64.096 64.096 0 0 1-52.16-18.368L64.288 403.008a64 64 0 0 1 0-90.496L448.96-72.16a64 64 0 0 1 90.496 0l435.008 435.008a64 64 0 0 1 18.368 52.192L955.008 762.144z m-460.8-789.056L109.536 357.76 544.544 792.768l346.848-37.536 37.824-347.136-435.008-435.008zM709.856 695.52a112 112 0 1 1 0-224 112 112 0 0 1 0 224z m0-160a48 48 0 1 0 0.032 96.032 48 48 0 0 0-0.032-96.032z"  horiz-adv-x="1024" />

    
    <glyph glyph-name="zhihangfankui" unicode="&#60469;" d="M992.544 300.704a31.968 31.968 0 0 1-45.248 0l-201.376-201.376-95.04 95.04a31.968 31.968 0 1 1-45.248-45.248l117.664-117.664a31.968 31.968 0 0 1 45.248 0l224 224a31.968 31.968 0 0 1 0 45.248zM800 544a32 32 0 0 1-32 32H256a32 32 0 0 1 0-64h512a32 32 0 0 1 32 32zM256 352a32 32 0 0 1 0-64h288a32 32 0 0 1 0 64H256zM771.104-32H195.04C175.904-32 160-15.68 160 4.928V763.072C160 783.68 175.904 800 195.04 800h633.92C848.096 800 864 783.68 864 763.072v-350.528a32 32 0 0 1 64 0V763.072C928 818.624 883.84 864 828.96 864H195.04C140.16 864 96 818.624 96 763.072v-758.144C96-50.624 140.16-96 195.04-96h576.064a32 32 0 0 1 0 64z"  horiz-adv-x="1024" />

    
    <glyph glyph-name="gongdan" unicode="&#60471;" d="M704 480H320a32 32 0 0 1 0-64h384a32 32 0 0 1 0 64zM704 288H320a32 32 0 0 1 0-64h384a32 32 0 0 1 0 64zM832 864H192C139.072 864 96 820.928 96 768v-768c0-52.928 43.072-96 96-96h640c52.928 0 96 43.072 96 96V768c0 52.928-43.072 96-96 96zM320 800h384v-96H320V800z m544-800a32 32 0 0 0-32-32H192c-17.632 0-32 14.336-32 32V768c0 17.632 14.368 32 32 32h64v-96c0-35.296 28.704-64 64-64h384c35.296 0 64 28.704 64 64V800h64c17.664 0 32-14.368 32-32v-768z"  horiz-adv-x="1024" />

    
    <glyph glyph-name="chaxun" unicode="&#60492;" d="M896 832H128c-35.296 0-64-28.704-64-64v-768c0-35.296 28.704-64 64-64h592a32 32 0 1 1 0 64H128V768h768v-592a32 32 0 1 1 64 0V768c0 35.296-28.704 64-64 64zM791.744 149.50400000000002A206.752 206.752 0 0 1 832 272c0 114.688-93.312 208-208 208S416 386.688 416 272s93.312-208 208-208a206.752 206.752 0 0 1 122.496 40.256l110.88-110.88a31.904 31.904 0 0 1 45.248 0 31.968 31.968 0 0 1 0 45.248l-110.88 110.88zM480 272c0 79.392 64.608 144 144 144s144-64.608 144-144-64.608-144-144-144-144 64.608-144 144zM800 632a32 32 0 0 1-32 32H256a32 32 0 0 1 0-64h512a32 32 0 0 1 32 32zM256 473.344a32 32 0 0 1 0-64h96a32 32 0 0 1 0 64H256z"  horiz-adv-x="1024" />

    
    <glyph glyph-name="zhexiantu" unicode="&#60518;" d="M896 64H128V672a32 32 0 0 1-64 0v-640a32 32 0 0 1 32-32h800a32 32 0 1 1 0 64zM247.008 256c7.424 0 14.88 2.56 20.96 7.808l179.744 155.84 174.56-155.52a31.968 31.968 0 0 1 44.704 2.08l250.432 269.216a32 32 0 1 1-46.88 43.616l-229.088-246.304-172.128 153.44a32.064 32.064 0 0 1-42.272 0.288l-200.992-174.24A32 32 0 0 1 247.008 256z"  horiz-adv-x="1024" />

    
    <glyph glyph-name="liebiao" unicode="&#60523;" d="M64 416h352V768H64v-352z m64 288h224v-224H128V704zM64-32h352V320H64v-352z m64 288h224v-224H128v224zM526.848 672H928a32 32 0 1 1 0 64H526.848a32 32 0 0 1 0-64zM928 288H526.848a32 32 0 1 1 0-64H928a32 32 0 1 1 0 64zM928 512H526.848a32 32 0 0 1 0-64H928a32 32 0 1 1 0 64zM928 64H526.848a32 32 0 1 1 0-64H928a32 32 0 1 1 0 64z"  horiz-adv-x="1024" />

    
    <glyph glyph-name="wuxupailie" unicode="&#60544;" d="M288 736h640v-96H288zM288 432h640v-96H288zM288 128h640v-96H288zM160 688m-64 0a64 64 0 1 1 128 0 64 64 0 1 1-128 0ZM160 384m-64 0a64 64 0 1 1 128 0 64 64 0 1 1-128 0ZM160 80m-64 0a64 64 0 1 1 128 0 64 64 0 1 1-128 0Z"  horiz-adv-x="1024" />

    
    <glyph glyph-name="weizhi" unicode="&#58955;" d="M512-126.083593c-95.181535 0-383.281347 286.822208-383.281347 638.802246a383.281347 383.281347 0 0 0 766.562694 0c0-344.31441-293.849033-638.802246-383.281347-638.802246zM512 832.119775a319.401123 319.401123 0 0 1-319.401123-319.401122c0-319.401123 265.741734-574.922021 319.401123-574.922022 53.659389 6.388022 319.401123 255.520898 319.401123 574.922022a319.401123 319.401123 0 0 1-319.401123 319.401122z m0-511.041796a176.948222 176.948222 0 1 0 175.670618 175.670617A176.948222 176.948222 0 0 0 512 321.077979z m0 288.738615a113.067998 113.067998 0 1 1 111.790393-113.067998A113.067998 113.067998 0 0 1 512 609.816594z"  horiz-adv-x="1024" />

    
    <glyph glyph-name="fabuguanli" unicode="&#59024;" d="M832.1 764.7h-71.9c-15.9 0-28-12.1-28-28s12.1-28 28-28h71.9c40.1 0 71.9-28 71.9-61.6v-564.7c0-33.6-32.7-61.6-71.9-61.6H191.9c-39.2 0-71.9 28-71.9 61.6V647.1c0 33.6 32.7 61.6 71.9 61.6H274c15.9 0 28 12.1 28 28s-12.1 28-28 28h-82.1c-70 0-127.9-53.2-127.9-117.6v-564.7c0-64.4 57.9-117.6 127.9-117.6h640.3c70 0 127.9 53.2 127.9 117.6V647.1c-0.1 64.4-58 117.6-128 117.6z m0 0M293.6 535.1c11.2-10.3 28.9-9.3 39.2 1.9L484 700.3v-383.6c0-15.9 12.1-28 28-28s28 12.1 28 28V710.5l159.6-173.6c5.6-5.6 13.1-9.3 20.5-9.3 6.5 0 14 2.8 18.7 7.5 11.2 10.3 12.1 28 1.9 39.2L537.2 795.5c-10.3 11.2-30.8 11.2-41.1 0L292.7 574.3c-10.3-11.2-10.3-29 0.9-39.2z m41.1-336.9c-15.9 0-28-12.1-28-28s12.1-28 28-28h354.7c15.9 0 28 12.1 28 28s-12.1 28-28 28H334.7z m0 0"  horiz-adv-x="1024" />

    
    <glyph glyph-name="fabuxuqiu-copy" unicode="&#60545;" d="M339.76452588 267.02620809999996c-14.91458818 0-27.06085283 12.14806377-27.06085283 27.06175196 0 14.93437412 12.14716465 27.10672207 27.06085283 27.10672207l331.22922626 0c14.93527412 0 27.08243789-12.17054795 27.08243789-27.10672207 0-14.91368818-12.14716465-27.06175195-27.08243789-27.06175196L339.76452588 267.02620809999996 339.76452588 267.02620809999996zM335.73076016 120.65854540999999c-14.93707237 0-27.08423701 12.14896289-27.08423701 27.08333789 0 14.91368818 12.14626465 27.08423701 27.08423701 27.08423701l331.20584208 0c14.93617325 0 27.08333789-12.17054795 27.08333789-27.08423701 0-14.93437412-12.14716465-27.08333789-27.08333789-27.08333789L335.73076016 120.65854540999999 335.73076016 120.65854540999999zM188.67236592-66c-46.77098906 0-73.13841211 29.535075-73.13841211 74.06208633L115.53395381 732.00914971c0 42.77589785 21.86957285 79.86315234 74.93719218 79.86315234l466.30054864 0c11.41056386 0 21.27507539-6.09696651 26.39170634-16.30774336 5.09414589-10.22336894 4.0805332-21.78412998-2.78900946-30.91024247-5.53214883-7.40018232-14.36056348-11.82518262-23.60269776-11.82518263l-388.92330967 0c-17.24220967 0-30.93452666 0-42.0896628 0l-22.19695048 0c-6.98376533 0-12.58516758 0-17.5641917 0l-11.45643222 0.03507628 0-759.81024844 677.900983 0-0.02158506 11.43214892c-0.06835342 17.08031953-0.04586924 29.80399307-0.02338417 45.91566914l0 0.69342979c0 9.77367305 0.02338418 20.92971006 0.02338417 35.24440429L852.42054482 516.23194717c0 9.20795713 4.37913106 18.0129876 11.71006084 23.55682851 5.3028044 3.96451231 11.38627969 6.0403043 17.63344424 6.0403043 14.26612763 0 29.68797129-11.30623418 29.68797129-29.58634072l0-511.78001309c0-22.24371885-4.83961904-39.25388584-14.35966436-50.52414463-11.13445107-13.21024307-30.01175244-19.93948067-56.10306181-19.93948066L188.67236592-66 188.67236592-66zM786.56809326 786.62192227l6.91451192 8.50553349c5.74080732 7.08719502 13.57809434 16.78082256 18.39432831 22.07013663 8.18265234 8.9786127 19.43042607 13.73818536 32.52374912 13.73818534 8.20513653 0 15.23477109-1.83295722 19.70653887-3.37810956 14.89300224-5.11573184 34.55187363-22.31297138 43.86416045-38.33111163 10.04978584-17.32315518 9.95894824-35.12928252-0.23024355-48.86656875-8.25280489-11.20190537-14.7742831-19.52306367-17.21792637-22.5666l-6.24716455-7.87146328L786.56809326 786.62192227 786.56809326 786.62192227zM602.02851084 419.04204141c-5.48628047 0-9.93556406 1.71603633-13.25431318 5.10673799-4.19385674 4.29728643-6.06189023 10.79807872-5.85502998 20.43324667 0.36875039 16.44624932 9.22054834 68.21604932 12.5860667 79.18861026 2.53448174 8.25190488 5.6229873 15.70874942 12.44576161 25.21710263 9.84292646 13.66893281 131.91626074 175.43415586 156.28074171 207.72766055l6.22467949 8.22672247L868.02496543 688.2897917l-5.92248428-7.91823164c-34.48441933-45.9381542-147.40555869-196.44301143-153.76784501-204.57979454-5.60230137-7.16993877-13.11670722-14.23374961-20.0770875-18.88989257-14.54493867-9.76198096-61.21969277-32.44190449-76.59386895-36.45318516C608.04363271 419.5025294 604.88587373 419.04204141 602.02851084 419.04204141L602.02851084 419.04204141 602.02851084 419.04204141z"  horiz-adv-x="1024" />

    
    <glyph glyph-name="personLocation" unicode="&#58952;" d="M512.103132 575.879021a106.221743 106.221743 0 1 0-75.50702201-31.35461101A106.221743 106.221743 0 0 0 512.103132 575.879021m0 63.989002a170.850635 170.850635 0 1 1 120.93921401-49.911422A169.570855 169.570855 0 0 1 512.103132 639.868023zM805.172761 771.685367a407.60994199 407.60994199 0 0 1-586.139257 0 431.285873 431.285873 0 0 1 0-599.576948L512.103132-128l293.069629 300.108419a431.285873 431.285873 0 0 1 0 599.576948z m-44.15241101-557.344207l-248.91721799-255.956007-248.917217 255.956007a365.377201 365.377201 0 0 0 0 508.712565 346.82038999 346.82038999 0 0 0 497.83443501 0 365.377201 365.377201 0 0 0 0-508.712565z"  horiz-adv-x="1024" />

    
    <glyph glyph-name="OAOyingxiao" unicode="&#58951;" d="M510 255.7c-75.8 0-137.5 61.7-137.5 137.5 0 5.4 0.3 10.8 0.9 16.1 1.2 9.9 10.1 16.9 20 15.8 9.9-1.2 16.9-10.1 15.8-20-0.5-3.9-0.7-7.9-0.7-11.9 0-56 45.5-101.5 101.5-101.5s101.5 45.5 101.5 101.5S566 494.7 510 494.7c-3.5 0-7-0.2-10.5-0.5-9.9-1-18.7 6.2-19.7 16.1-1 9.9 6.2 18.7 16.1 19.7 4.7 0.5 9.4 0.7 14.1 0.7 75.8 0 137.5-61.7 137.5-137.5S585.8 255.7 510 255.7zM510 96.6c-79.2 0-153.7 30.9-209.8 86.9-56 56-86.9 130.5-86.9 209.8 0 30.1 4.5 59.7 13.3 88.2 3 9.5 13 14.8 22.5 11.8s14.8-13 11.8-22.5c-7.8-25-11.7-51.1-11.7-77.5 0-143.7 116.9-260.6 260.6-260.6s260.6 116.9 260.6 260.6S653.7 653.8 510 653.8c-26.3 0-52.2-3.9-77.1-11.6-9.5-2.9-19.6 2.4-22.5 11.9-2.9 9.5 2.4 19.6 11.9 22.5 28.3 8.8 57.8 13.2 87.7 13.2 79.2 0 153.7-30.9 209.8-86.9 56-56 86.9-130.5 86.9-209.8 0-79.2-30.9-153.7-86.9-209.8-56.1-55.9-130.6-86.7-209.8-86.7zM510-64.7c-61.8 0-121.8 12.1-178.2 36-54.5 23.1-103.5 56.1-145.5 98.1-42 42-75.1 91-98.1 145.5-23.9 56.5-36 116.4-36 178.2 0 62.6 12.4 123.2 36.8 180.2 3.9 9.1 14.5 13.4 23.6 9.5 9.1-3.9 13.4-14.5 9.5-23.6-22.5-52.5-33.9-108.4-33.9-166 0-232.6 189.3-421.9 421.9-421.9 232.6 0 421.9 189.3 421.9 421.9 0 232.6-189.3 421.9-421.9 421.9-59.6 0-117.3-12.2-171.3-36.2-9.1-4-19.7 0-23.8 9.1-4 9.1 0 19.7 9.1 23.8 58.7 26.1 121.2 39.3 186 39.3 61.8 0 121.8-12.1 178.2-36C742.8 792 791.8 759 833.8 717c42-42 75.1-91 98.1-145.5 23.9-56.5 36-116.4 36-178.2s-12.1-121.8-36-178.2c-23.1-54.5-56.1-103.5-98.1-145.5-42-42-91-75.1-145.5-98.1-56.5-24.1-116.5-36.2-178.3-36.2zM358.9 529.4h-125c-4.9 0-9.7 2-13.1 5.6l-173 182.7c-4.9 5.2-6.3 12.9-3.5 19.5s9.3 10.9 16.5 10.9h95.8l-1.2 102.1c-0.1 7.4 4.3 14.1 11.2 16.9 6.8 2.8 14.7 1.2 19.8-4.2l185.4-192.3c3.2-3.4 5-7.8 5-12.5v-110.7c0.1-10-7.9-18-17.9-18z m-117.2 36H341v85.4L192 805.3l0.9-75c0.1-4.8-1.8-9.4-5.2-12.9-3.4-3.4-8-5.3-12.8-5.3h-72.1l138.9-146.7zM510 375.2c-4.7 0-9.3 1.8-12.8 5.4L346.1 534.5c-7 7.1-6.9 18.5 0.2 25.5 7.1 7 18.5 6.9 25.5-0.2l151.1-153.9c7-7.1 6.9-18.5-0.2-25.5-3.6-3.5-8.1-5.2-12.7-5.2z"  horiz-adv-x="1024" />

    
    <glyph glyph-name="OAOkuandai" unicode="&#58950;" d="M725.333 469.333V704A21.333 21.333 0 0 0 768 704v-234.667h106.667A85.333 85.333 0 0 0 960 384v-256a85.333 85.333 0 0 0-85.333-85.333H149.333A85.333 85.333 0 0 0 64 128V384a85.333 85.333 0 0 0 85.333 85.333h576z m-576-42.666A42.667 42.667 0 0 1 106.667 384v-256a42.667 42.667 0 0 1 42.666-42.667h725.334A42.667 42.667 0 0 1 917.333 128V384a42.667 42.667 0 0 1-42.666 42.667H149.333zM192 149.333A21.333 21.333 0 0 0 192 192h640a21.333 21.333 0 0 0 0-42.667H192z m21.333 85.334a42.667 42.667 0 1 0 0 85.333 42.667 42.667 0 0 0 0-85.333z m128 0a42.667 42.667 0 1 0 0 85.333 42.667 42.667 0 0 0 0-85.333z m128 0a42.667 42.667 0 1 0 0 85.333 42.667 42.667 0 0 0 0-85.333z"  horiz-adv-x="1024" />

    
    <glyph glyph-name="yingxiaoyizhangtu" unicode="&#58949;" d="M826.88 358.4l-294.4 289.28-273.92 20.48c-10.24 0-20.48-2.56-28.16-10.24s-10.24-15.36-10.24-25.6l25.6-263.68 294.4-291.84c10.24-10.24 25.6-17.92 40.96-17.92s28.16 5.12 40.96 15.36l204.8 202.24c20.48 23.04 20.48 58.88 0 81.92zM581.12 115.2c-2.56 0-2.56 0-2.56 2.56L299.52 391.68 276.48 614.4l230.4-17.92L785.92 320l2.56-2.56v-2.56L581.12 115.2c2.56 0 2.56 0 0 0zM501.76 481.28c0 23.04-7.68 43.52-25.6 58.88-15.36 15.36-35.84 25.6-58.88 25.6s-43.52-7.68-58.88-25.6c-15.36-15.36-25.6-35.84-25.6-58.88s7.68-43.52 25.6-58.88c15.36-15.36 35.84-25.6 58.88-25.6s43.52 7.68 58.88 25.6c17.92 15.36 25.6 35.84 25.6 58.88z m-64-23.04c-5.12-5.12-12.8-7.68-20.48-7.68s-15.36 2.56-20.48 7.68c-5.12 5.12-7.68 12.8-7.68 20.48s2.56 15.36 7.68 20.48c5.12 5.12 12.8 7.68 20.48 7.68s15.36-2.56 20.48-7.68c12.8-10.24 12.8-28.16 0-40.96z m71.68-104.96c-5.12 5.12-12.8 7.68-17.92 7.68-7.68 0-12.8-2.56-17.92-7.68-10.24-10.24-10.24-28.16 0-38.4l110.08-107.52c5.12-5.12 12.8-7.68 17.92-7.68 7.68 0 12.8 2.56 17.92 7.68 10.24 10.24 10.24 28.16 0 38.4L509.44 353.28z m74.24 74.24c-5.12 5.12-12.8 7.68-20.48 7.68s-12.8-2.56-17.92-7.68c-10.24-10.24-10.24-28.16 0-38.4L655.36 281.6c5.12-5.12 12.8-7.68 17.92-7.68 7.68 0 12.8 2.56 17.92 7.68 5.12 5.12 7.68 12.8 7.68 17.92s-2.56 12.8-7.68 17.92L583.68 427.52zM798.72 819.2H947.2v-145.92h51.2V870.4H798.72zM947.2 94.72V-51.2H798.72v-51.2H998.4V94.72zM66.56 673.28V819.2h148.48V870.4H12.8v-197.12zM215.04-51.2H66.56V94.72H12.8V-102.4h202.24z"  horiz-adv-x="1024" />

    
    <glyph glyph-name="bianzubeifen" unicode="&#58939;" d="M811.84064 777.28A436.416 436.416 0 0 1 512.25664 896a436.416 436.416 0 0 1-299.552-118.72c-182.56-169.856-173.184-465.44 4.672-640l248.096-246.656c11.68-11.648 30.4-18.624 46.784-18.624s32.768 6.976 46.816 18.624l248.096 246.688c175.52 176.864 187.2 470.08 4.672 640zM518.11264 396.896c18.848-210.752 80.256-204.448 106.624-52l42.496 9.984c-46.816-292.8-235.232-270.176-257.504 35.68-216.96 5.824-248.704 167.68 15.136 269.664l9.184-22.048c-137.856-57.28-148.608-137.632-22.72-151.808 33.6 217.984 145.536 268.48 220.896 126.56l-22.016-6.336c-46.304 35.2-75.744-24.672-87.776-116.128 176.608 43.136 269.12 151.328 137.28 177.088l-7.552 31.52c286.944-24.16 202.432-229.12-134.08-302.176z"  horiz-adv-x="1024" />

    
    <glyph glyph-name="Fillbeifen" unicode="&#58940;" d="M811.84064 777.28A436.416 436.416 0 0 1 512.25664 896a436.416 436.416 0 0 1-299.552-118.72c-182.56-169.856-173.184-465.44 4.672-640l248.096-246.656c11.68-11.648 30.4-18.624 46.784-18.624s32.768 6.976 46.816 18.624l248.096 246.688c175.52 176.864 187.2 470.08 4.672 640z"  horiz-adv-x="1024" />

    
    <glyph glyph-name="paixu" unicode="&#58941;" d="M1086.685819 164.628893a47.246573 47.246573 0 0 0 69.187706 0c19.015649-20.185843 19.015649-52.65872 0-72.698288l-194.983537-204.783909a47.246573 47.246573 0 0 0-69.187706 0 53.243817 53.243817 0 0 0 0 72.698288L1086.685819 164.628893zM975.078588-76.723572c0-28.230925-21.941133-51.195977-48.85559-51.195977A50.025784 50.025784 0 0 0 877.659956-76.577297v921.527594c0 28.08465 21.941133 51.049703 48.709316 51.049703 26.914457 0 48.85559-22.965053 48.85559-51.195977v-921.38132zM48.723944 793.754319A50.025784 50.025784 0 0 0 0.014629 844.804023C0.014629 872.888673 21.955762 896 48.723944 896H731.385735c26.914457 0 48.709316-22.965053 48.709316-51.195977 0-28.230925-21.794859-51.195977-48.709316-51.195978H48.723944z m0-307.175864A50.025784 50.025784 0 0 0 0.014629 537.628158c0 28.230925 21.941133 51.195977 48.709315 51.195977H731.385735c26.914457 0 48.709316-22.965053 48.709316-51.195977 0-28.377199-21.794859-51.195977-48.709316-51.195978H48.723944z m0-307.175865A50.025784 50.025784 0 0 0 0.014629 230.598567c0 28.230925 21.941133 51.195977 48.709315 51.195978H731.385735c26.914457 0 48.709316-22.965053 48.709316-51.195978 0-28.230925-21.794859-51.195977-48.709316-51.195977H48.723944z m0-307.175865A50.025784 50.025784 0 0 0 0.014629-76.577297c0 28.377199 21.941133 51.195977 48.709315 51.195977H731.385735c26.914457 0 48.709316-22.818779 48.709316-51.195977 0-28.230925-21.794859-51.195977-48.709316-51.195978H48.723944z"  horiz-adv-x="1170" />

    
    <glyph glyph-name="dingdandadian" unicode="&#58942;" d="M112.786286 851.626667h696.124952c192.26819 0 348.062476-153.84381 348.062476-343.673905v-515.559619c0-54.174476-44.422095-98.206476-99.474285-98.206476H361.374476C169.106286-105.71581 13.312 48.176762 13.312 238.055619V753.566476C13.312 807.740952 57.880381 851.626667 112.786286 851.626667zM275.407238 475.526095a27.794286 27.794286 0 0 0-21.357714 9.118476L189.927619 548.473905a29.257143 29.257143 0 0 0 0 42.520381c12.190476 12.190476 30.524952 12.190476 42.764191 0l64.121904-63.829334a29.257143 29.257143 0 0 0 0-42.520381 33.060571 33.060571 0 0 0-21.406476-9.118476zM275.407238 475.526095a27.794286 27.794286 0 0 0-21.357714 9.118476 29.257143 29.257143 0 0 0 0 42.520381L403.748571 676.132571c12.190476 12.190476 30.524952 12.190476 42.764191 0a29.257143 29.257143 0 0 0 0-42.569142l-149.699048-148.918858a33.060571 33.060571 0 0 0-21.357714-9.118476zM275.407238 110.738286a27.794286 27.794286 0 0 0-21.357714 9.118476l-64.121905 63.878095a29.257143 29.257143 0 0 0 0 42.520381c12.190476 12.190476 30.524952 12.190476 42.764191 0l64.121904-63.878095a29.257143 29.257143 0 0 0 0-42.520381 33.060571 33.060571 0 0 0-21.406476-9.118476zM275.407238 110.738286a27.794286 27.794286 0 0 0-21.357714 9.118476 29.257143 29.257143 0 0 0 0 42.569143L403.748571 311.344762c12.190476 12.190476 30.524952 12.190476 42.764191 0a29.257143 29.257143 0 0 0 0-42.520381l-149.699048-148.967619a33.060571 33.060571 0 0 0-21.357714-9.118476zM275.407238 110.738286a27.794286 27.794286 0 0 0-21.357714 9.118476l-64.121905 63.878095a29.257143 29.257143 0 0 0 0 42.520381c12.190476 12.190476 30.524952 12.190476 42.764191 0l64.121904-63.878095a29.257143 29.257143 0 0 0 0-42.520381 33.060571 33.060571 0 0 0-21.406476-9.118476zM275.407238 110.738286a27.794286 27.794286 0 0 0-21.357714 9.118476 29.257143 29.257143 0 0 0 0 42.569143L403.748571 311.344762c12.190476 12.190476 30.524952 12.190476 42.764191 0a29.257143 29.257143 0 0 0 0-42.520381l-149.699048-148.967619a33.060571 33.060571 0 0 0-21.357714-9.118476zM913.65181 536.283429h-396.970667c-18.334476 0-30.524952 12.190476-30.524953 30.427428s12.190476 30.378667 30.524953 30.378667h396.970667c18.334476 0 30.573714-12.190476 30.573714-30.378667 0-18.236952-12.190476-30.427429-30.573714-30.427428z m0-364.739048h-396.970667c-18.334476 0-30.524952 12.190476-30.524953 30.378667 0 18.236952 12.190476 30.427429 30.524953 30.427428h396.970667c18.334476 0 30.573714-12.190476 30.573714-30.427428s-12.190476-30.378667-30.573714-30.378667zM808.96 826.270476a323.437714 323.437714 0 0 0 228.010667-93.135238 315.099429 315.099429 0 0 0 94.305523-225.182476v-515.559619c0-40.082286-33.060571-72.801524-73.776761-72.801524H361.374476a323.437714 323.437714 0 0 0-228.010666 93.135238A315.099429 315.099429 0 0 0 39.009524 238.006857V753.615238c0 40.082286 33.060571 72.850286 73.776762 72.850286l696.124952-0.146286z m0 25.356191H112.737524c-54.905905 0-99.474286-43.885714-99.474286-98.206477v-515.510857c0-189.878857 155.794286-343.771429 348.062476-343.771428h696.124953c54.905905 0 99.474286 43.885714 99.474285 98.255238V508.099048C1156.827429 697.782857 1001.081905 851.626667 808.96 851.626667z"  horiz-adv-x="1170" />

    
    <glyph glyph-name="hujiao" unicode="&#58945;" d="M730.077867 143.36c-37.0688-37.034667-174.114133-1.672533-310.033067 133.700267-135.338667 135.338667-170.154667 272.930133-133.12 309.4528 32.017067 31.982933 70.792533 87.586133 129.194667 15.1552 58.402133-72.465067 29.764267-92.672-3.3792-125.815467-23.005867-23.005867 25.258667-81.442133 75.264-131.413333 50.517333-49.9712 108.407467-98.304 131.413333-75.264 33.143467 33.109333 53.3504 61.781333 125.815467 3.3792 73.0112-58.402133 16.827733-97.723733-15.1552-129.194667zM512-110.933333c273.339733 0 494.933333 221.5936 494.933333 494.933333S785.339733 878.933333 512 878.933333 17.066667 657.339733 17.066667 384 238.660267-110.933333 512-110.933333z m0 34.133333C257.501867-76.8 51.2 129.501867 51.2 384S257.501867 844.8 512 844.8 972.8 638.498133 972.8 384 766.498133-76.8 512-76.8z"  horiz-adv-x="1024" />

    
    <glyph glyph-name="bianzubeifen1" unicode="&#58946;" d="M811.84064 777.28A436.416 436.416 0 0 1 512.25664 896a436.416 436.416 0 0 1-299.552-118.72c-182.56-169.856-173.184-465.44 4.672-640l248.096-246.656c11.68-11.648 30.4-18.624 46.784-18.624s32.768 6.976 46.816 18.624l248.096 246.688c175.52 176.864 187.2 470.08 4.672 640zM351.77664 419.84l-0.352-0.384-19.648-18.4a77.664 77.664 0 0 0-52.64-20.544c-41.888 0-76 33.184-76 74.304 0 40.768 34.112 73.92 76 73.92 20 0 37.44-7.552 51.136-19.84l3.712-3.2 17.056-16.64 0.384 0.384 36.672 34.624 35.968-36.416-35.968-33.568 35.2-33.536-35.2-35.36-36.32 34.624z m232.416-187.584a77.44 77.44 0 0 0-47.456 16.224l-0.736 0.736-28.16 25.6h-0.384l-26.688-24.896-0.736-0.704a77.216 77.216 0 0 0-48.192-16.96c-41.888 0-75.968 33.184-75.968 73.92 0 19.136 7.392 36.48 19.648 49.792l0.736 1.088 96.736 97.408-96.736 98.112a73.248 73.248 0 0 0-19.648 49.76c0 40.768 34.112 73.952 76 73.952a77.44 77.44 0 0 0 48.544-16.96l0.736-0.704 26.688-24.896 28.16 25.6 0.768 0.384c13.504 10.56 30.24 16.256 47.424 16.224 41.92 0 76-33.184 76-73.952 0-18.752-7.04-36.064-18.88-49.056l-0.768-1.088-97.504-97.376 39.68-40.064 1.472-1.44 55.232-57.344 1.472-0.352c11.52-13.344 18.912-30.304 18.912-49.056 0-40.768-34.08-73.952-76.352-73.952z m152.352 147.904a77.664 77.664 0 0 0-52.64 20.544l-20 18.752-0.768-0.704-35.584-34.272-35.2 35.36 35.2 33.536-0.352 0.352-35.2 33.536 35.936 36.096 1.472-1.824 34.496-32.448 0.352-0.352 17.056 16.576 3.712 2.88c13.696 12.256 31.136 19.84 51.136 19.84 41.92 0 76-33.184 76.352-73.92 0-40.768-34.08-73.952-75.968-73.952z m-134.56 204.16a24.192 24.192 0 0 1 7.424 17.664 24.896 24.896 0 0 1-25.216 24.544 23.84 23.84 0 0 1-17.056-6.496l-19.648-19.136-0.352-0.352 28.16-26.688-37.792-38.24-30.048 28.864-30.016-28.16-37.792 37.536 30.016 25.6-22.24 21.632-0.384 0.384a25.824 25.824 0 0 1-15.552 5.024 24.896 24.896 0 0 1-25.216-24.512c0-6.144 2.24-11.52 5.92-15.872l95.264-96.32 94.528 94.528z m-95.264-166.304l-95.264-96.32a24.064 24.064 0 0 1-5.92-15.84c0-13.344 11.104-24.544 25.184-24.544 5.952 0 11.52 1.792 15.584 5.056l22.624 21.632-30.048 26.336 37.088 37.888 29.632-28.16 0.384-0.32 30.016 29.536 38.176-38.592-27.776-27.04-0.384-0.352 20-19.488c4.704-4.16 10.784-6.496 17.056-6.496 14.08 0 25.6 10.816 25.6 24.544a25.696 25.696 0 0 1-7.424 17.664l-94.528 94.496z m229.824 60.608a24.768 24.768 0 0 1-17.056-6.496l-18.88-18.048 18.88-18.752a25.728 25.728 0 0 1 42.24 18.4 24.768 24.768 0 0 1-7.36 17.664 25.152 25.152 0 0 1-17.824 7.232z m-441.856-4.32a25.6 25.6 0 0 1-15.168 5.024c-14.08 0-25.6-10.816-25.6-24.512s11.52-24.896 25.6-24.896a24.96 24.96 0 0 1 16.64 6.144l18.912 18.752-16.32 15.52a21.056 21.056 0 0 1-4.064 3.968z"  horiz-adv-x="1024" />

    
    <glyph glyph-name="chenggong" unicode="&#58947;" d="M512-128C229.23264-128 0 101.23264 0 384S229.23264 896 512 896s512-229.23264 512-512-229.23264-512-512-512z m-49.58208 377.20064l-146.432 148.19328-96.5632-92.24192c70.22592-37.80608 168.59136-106.78272 252.86656-213.72928 59.53536 111.9232 243.05664 340.84864 332.288 361.32864-14.41792 57.71264-22.528 166.03136 0 223.82592-183.00928-120.68864-342.15936-427.37664-342.15936-427.37664z"  horiz-adv-x="1024" />

    
    <glyph glyph-name="wodedingdan" unicode="&#58948;" d="M616.886857 890.660571H395.337143c-27.136 0-48.859429-24.137143-48.859429-54.052571 0-29.988571 21.723429-54.125714 48.859429-54.125714h222.939428c25.819429 0 47.542857 24.137143 47.542858 54.125714 0 29.915429-21.723429 54.125714-48.932572 54.125714z m240.64-36.059428h-110.445714c1.170286-5.851429 1.828571-11.922286 1.828571-17.993143 0-45.494857-32.914286-90.258286-72.265143-90.258286H337.700571c-41.325714 0-74.313143 44.763429-74.313142 90.258286 0 6.070857 0.658286 12.068571 1.755428 17.993143H153.6C63.780571 854.601143 41.691429 803.693714 41.691429 730.258286v-727.04c0-78.848 31.597714-122.953143 118.564571-122.953143h690.468571c86.966857 0 129.243429 34.596571 129.243429 122.88V730.331429c0 73.362286-39.570286 124.269714-122.514286 124.269714z m-113.371428-717.897143h-479.817143c-17.627429 0-35.328 21.723429-35.328 39.424 0 17.627429 14.994286 32.768 32.621714 32.768h478.354286a34.377143 34.377143 0 0 0 34.011428-32.768c0-17.700571-12.214857-39.424-29.915428-39.424z m1.901714 192.512H266.313143c-17.700571 0-28.964571 19.017143-28.964572 36.717714 0 17.773714 14.994286 35.474286 32.621715 35.474286h478.354285c17.700571 0 32.694857-16.457143 34.011429-35.474286 0-17.700571-18.651429-36.717714-36.278857-36.717714z m0 197.705143H266.313143c-17.700571 0-28.964571 19.017143-28.964572 36.790857 0 17.700571 14.994286 35.401143 32.621715 35.401143h478.354285c17.700571 0 32.694857-16.384 34.011429-35.401143 0-17.773714-18.651429-36.790857-36.278857-36.790857z"  horiz-adv-x="1024" />

    
    <glyph glyph-name="paixu1" unicode="&#58938;" d="M897.36533333 203.43466666999996a34.13333333 34.13333333 0 0 0 48.46933334-48.46933334l-136.53333334-136.53333333a34.13333333 34.13333333 0 0 0-48.46933333 48.46933333zM819.2 42.66666667000004a34.13333333 34.13333333 0 0 0-68.26666667 0V657.06666667a34.13333333 34.13333333 0 0 0 68.26666667 0zM170.66666667 622.93333333a34.13333333 34.13333333 0 0 0 0 68.26666667h477.86666666a34.13333333 34.13333333 0 0 0 0-68.26666667z m0-204.8a34.13333333 34.13333333 0 0 0 0 68.26666667h477.86666666a34.13333333 34.13333333 0 0 0 0-68.26666667z m0-204.8a34.13333333 34.13333333 0 0 0 0 68.26666667h477.86666666a34.13333333 34.13333333 0 0 0 0-68.26666667z m0-204.8a34.13333333 34.13333333 0 0 0 0 68.26666667h477.86666666a34.13333333 34.13333333 0 0 0 0-68.26666667z"  horiz-adv-x="1024" />

    
    <glyph glyph-name="wodemopai" unicode="&#58935;" d="M130.121143 420.571429C147.492571 602.989714 293.12 748.617143 475.428571 765.988571V822.857143a36.571429 36.571429 0 0 0 73.142858 0v-56.868572c182.564571-17.334857 328.045714-162.925714 345.344-345.417142H950.857143a36.571429 36.571429 0 0 0 0-73.142858h-56.941714c-17.298286-182.381714-162.742857-328.082286-345.344-345.417142V-54.857143a36.571429 36.571429 0 0 0-73.142858 0v56.868572C293.083429 19.382857 147.382857 165.083429 130.084571 347.428571H73.142857a36.571429 36.571429 0 0 0 0 73.142858h56.978286zM512 195.876571c103.606857 0 187.428571 84.333714 187.428571 188.050286 0 103.241143-83.821714 187.684571-187.428571 187.684572a187.977143 187.977143 0 0 1-187.684571-187.684572A187.977143 187.977143 0 0 1 512 195.876571z m0 247.222858a59.245714 59.245714 0 0 0 58.989714-59.245715c0-32.731429-26.550857-59.099429-58.989714-59.099428-32.365714 0-58.88 26.294857-58.88 59.062857a59.245714 59.245714 0 0 0 58.88 59.245714z"  horiz-adv-x="1024" />

    
    <glyph glyph-name="dingwei" unicode="&#58944;" d="M434.554622-128c-240.941176 212.510118-361.411765 380.928-361.411765 505.374118C73.142857 563.983059 234.934857 715.294118 434.554622 715.294118s361.411765-151.311059 361.411765-337.92c0-124.446118-120.470588-292.864-361.411765-505.374118z m0 327.920941c85.534118 0 154.864941 62.945882 154.864941 140.589177C589.419563 418.093176 520.148975 480.978824 434.554622 480.978824c-85.534118 0-154.864941-62.945882-154.864941-140.528942 0-77.643294 69.270588-140.589176 154.864941-140.589176z"  horiz-adv-x="1024" />

    
    <glyph glyph-name="zhedie" unicode="&#58936;" d="M332.16 12.159999999999968a40.96 40.96 0 0 1 58.24 0l338.56 343.04a40.96 40.96 0 0 1 0 58.24L390.4 755.84a40.96 40.96 0 0 1-58.24-58.24L640 384l-307.84-314.24a40.96 40.96 0 0 1 0-57.6z"  horiz-adv-x="1024" />

    
    <glyph glyph-name="close" unicode="&#58937;" d="M521.693867 446.702933L111.4112 856.9856a51.2 51.2 0 1 1-72.430933-72.362667l410.282666-410.3168-410.282666-410.3168a51.2 51.2 0 1 1 72.3968-72.3968l410.3168 410.282667 410.3168-410.282667a51.2 51.2 0 1 1 72.3968 72.362667l-410.282667 410.350933 410.282667 410.282667a51.2 51.2 0 1 1-72.3968 72.3968l-410.282667-410.282667z"  horiz-adv-x="1024" />

    
    <glyph glyph-name="yanjing" unicode="&#58880;" d="M511.999 633.693c-159.69 0-284.207-95.246-436.906-249.691C206.601 252.05600000000004 316.92 134.30999999999995 511.999 134.30999999999995c194.86 0 338.164 148.986 436.906 246.851C847.979 495.849 704.675 633.693 511.999 633.693 511.999 633.693 511.999 633.693 511.999 633.693zM511.999 259.72299999999996c-67.248 0-121.992 55.811-121.992 124.279 0 68.62 54.744 124.279 121.992 124.279s121.992-55.811 121.992-124.279C633.991 315.381 579.247 259.72299999999996 511.999 259.72299999999996z"  horiz-adv-x="1024" />

    
    <glyph glyph-name="jiantou" unicode="&#58976;" d="M780.717489 427.459591l-450.559009 450.559009a61.460345 61.460345 0 0 1-86.896449-86.896449L650.342096 384.001126 243.262031-23.099418000000014a61.460345 61.460345 0 0 1 86.916929-86.896449l450.559009 450.559009a61.439865 61.439865 0 0 1-0.02048 86.896449z"  horiz-adv-x="1024" />

    
    <glyph glyph-name="yaoyiyao1" unicode="&#58991;" d="M684.5 739.2L417 767.3c-2.7 0-5.5 0.7-8.9 0.7-41.1 0-77.5-31.5-81.6-73.4l-60.3-575.3c-2.1-21.3 4.1-41.1 15.8-57.6v-2.1h2.1c13-16.5 32.9-28.1 55.5-30.9l267.4-28c2.7 0 5.5-0.7 8.9-0.7 19.9 0 37.7 6.9 52.1 19.2h2.1v2.1c15.1 13 25.4 31.5 27.4 52.8l60.3 575.3c4.1 43.9-28.8 85-73.3 89.8z m-54.2-56.9c-0.7-6.9-6.9-11.7-13.7-11l-148.1 15.8c-6.9 0.7-11.7 6.9-11 13.7 0.7 6.9 6.9 11.7 13.7 11L619.3 696c6.9-0.7 11.7-6.9 11-13.7zM511.7 85c-2.1-17.1-17.1-29.5-34.3-27.4-17.1 2.1-29.5 17.1-27.4 34.3 2.1 17.1 17.1 29.5 34.3 27.4 16.4-2 28.7-17.1 27.4-34.3z m148.1 28.1l-349.7 37 54.2 517 349-37-53.5-517z m199.5 272.3c0 28.8-14.4 55.5-37.7 72.7-9.6 6.2-21.9 4.1-28.8-5.5-6.2-9.6-4.1-21.9 5.5-28.8 12.3-8.9 20.6-23.3 20.6-38.4 0-15.1-7.5-29.5-20.6-38.4-9.6-6.2-11.7-19.2-5.5-28.8 4.1-5.5 10.3-8.9 17.1-8.9 4.1 0 8.2 1.4 11.7 3.4 23.3 17.8 37.7 43.9 37.7 72.7zM849 527.3c-9.6 6.2-21.9 4.1-28.8-5.5-6.2-9.6-4.1-21.9 5.5-28.8 35.7-24.7 56.2-65.1 56.2-107.7 0-43.2-21.3-83.7-56.2-107.7-9.6-6.2-11.7-19.2-5.5-28.8 4.1-5.5 10.3-8.9 17.1-8.9 4.1 0 8.2 1.4 11.7 3.4 46.6 32.9 74.1 85.7 74.1 141.9 0 56.4-27.4 109.9-74.1 142.1z m-605.5-107c9.6 6.2 11.7 19.2 5.5 28.8-6.2 9.6-19.2 11.7-28.8 5.5-24-17.1-39.1-44.6-39.1-74.1 0-29.5 14.4-57.6 39.1-74.1 3.4-2.7 7.5-3.4 11.7-3.4 6.9 0 13 3.4 17.1 8.9 6.2 9.6 4.1 21.9-5.5 28.8-13.3 9.2-21.3 24.3-21.3 40.5 0.1 15.1 8.3 30.2 21.3 39.1zM201 268.79999999999995c-37 25.4-59 67.2-59 111.1 0 43.9 21.9 86.4 59 111.8 9.6 6.2 11.7 19.2 5.5 28.8-6.2 9.6-19.2 11.7-28.8 5.5-48-32.9-76.8-87.8-76.8-146.1s28.8-112.5 76.1-146.1c3.4-2.7 7.5-3.4 11.7-3.4 6.9 0 13 3.4 17.1 8.9 6.9 10.3 4.1 23.3-4.8 29.5z m0 0"  horiz-adv-x="1024" />

    
    <glyph glyph-name="jiantou1" unicode="&#60308;" d="M853.333333 388.266667H128v-42.666667h733.866667l-145.066667-145.066667 29.866667-29.866666 192 192L746.666667 554.666667l-29.866667-29.866667 136.533333-136.533333z"  horiz-adv-x="1024" />

    
    <glyph glyph-name="dubanrenwu" unicode="&#58918;" d="M434.541714 293.302857v99.181714c-73.179429 32.548571-123.245714 104.338286-123.245714 188.416A205.531429 205.531429 0 0 0 516.754286 786.285714c113.298286 0 204.909714-92.086857 204.909714-205.385143a204.836571 204.836571 0 0 0-121.819429-187.465142l-1.426285-100.096h185.124571c56.649143 0 102.912-45.348571 102.912-102.473143v-102.473143H147.017143V190.902857a102.765714 102.765714 0 0 0 102.948571 102.473143h184.612572z m-246.491428-246.454857h657.298285v-82.176H188.050286v82.176z"  horiz-adv-x="1024" />

    
    <glyph glyph-name="gongchengjinduchaxun" unicode="&#58919;" d="M512 786.285714C289.828571 786.285714 109.714286 606.171429 109.714286 384s180.114286-402.285714 402.285714-402.285714 402.285714 180.114286 402.285714 402.285714S734.171429 786.285714 512 786.285714z m0-402.285714L280.868571 615.131429A325.851429 325.851429 0 0 0 512 710.838857V384z"  horiz-adv-x="1024" />

    
    <glyph glyph-name="funengba" unicode="&#58920;" d="M529.956571 786.285714s-346.806857-274.761143-346.806857-461.824c0-187.026286 155.282286-338.651429 346.806857-338.651428s346.806857 151.625143 346.806858 338.651428S529.956571 786.285714 529.956571 786.285714z m-30.171428-649.508571l30.171428 151.149714h-150.747428l195.986286 241.664-30.171429-151.04h150.820571l-196.096-241.700571 0.036572-0.036572z"  horiz-adv-x="1024" />

    
    <glyph glyph-name="gongdanchaxun" unicode="&#58921;" d="M973.385143 3.84l-75.410286 75.117714c30.610286 61.696 20.187429 139.154286-30.537143 189.622857a151.478857 151.478857 0 0 1-219.611428-4.571428c-59.428571-64.109714-57.453714-166.034286 4.388571-227.620572a151.186286 151.186286 0 0 1 192.548572-18.505142l73.618285-73.362286a38.765714 38.765714 0 0 1 56.100572 1.206857 42.130286 42.130286 0 0 1-1.097143 58.148571z m-282.441143 74.386286c-39.606857 39.387429-40.850286 104.594286-2.816 145.664a96.987429 96.987429 0 0 0 140.544 2.925714c39.606857-39.387429 40.886857-104.594286 2.816-145.664a96.914286 96.914286 0 0 0-140.544-2.925714zM565.942857 132.608H291.876571a31.195429 31.195429 0 0 0 0 62.317714h275.382858c2.048 0 4.096-0.219429 6.107428-0.585143a216.685714 216.685714 0 0 0 242.761143 157.037715l0.402286 336.969143A61.001143 61.001143 0 0 1 755.382857 749.714286H207.981714a61.44 61.44 0 0 1-61.184-61.330286L146.285714 6.875429a61.001143 61.001143 0 0 1 61.184-61.220572h476.964572a215.881143 215.881143 0 0 0-118.491429 186.953143zM269.897143 522.496a30.976 30.976 0 0 0 21.979428 9.069714h126.281143a31.195429 31.195429 0 1 0 0.146286-62.281143H292.059429a31.085714 31.085714 0 0 0-31.085715 31.232 30.208 30.208 0 0 0 8.923429 22.016z m21.979428-149.942857h311.515429a31.195429 31.195429 0 0 0 0-62.354286H291.876571a31.195429 31.195429 0 1 0 0 62.354286z"  horiz-adv-x="1024" />

    
    <glyph glyph-name="hongchenghuang" unicode="&#58922;" d="M512 566.857143m-182.857143 0a182.857143 182.857143 0 1 1 365.714286 0 182.857143 182.857143 0 1 1-365.714286 0ZM292.571429 201.142857m-182.857143 0a182.857143 182.857143 0 1 1 365.714285 0 182.857143 182.857143 0 1 1-365.714285 0ZM731.428571 201.142857m-182.857142 0a182.857143 182.857143 0 1 1 365.714285 0 182.857143 182.857143 0 1 1-365.714285 0Z"  horiz-adv-x="1024" />

    
    <glyph glyph-name="jiatingchangjingyingxiao" unicode="&#58923;" d="M923.245714 132.278857l-60.781714 119.149714a34.742857 34.742857 0 0 1-36.425143 18.541715 97.097143 97.097143 0 0 1-55.625143 176.566857 97.024 97.024 0 0 1-62.317714-171.483429l-89.197714 42.422857a32.841143 32.841143 0 0 1-19.968 2.706286L473.6 491.154286a49.846857 49.846857 0 0 1-10.825143 10.825143 76.909714 76.909714 0 0 1-32 16.749714 134.582857 134.582857 0 1 1-149.467428-1.353143 78.482286 78.482286 0 0 1-52.077715-55.990857l-87.771428-188.050286c-11.922286-25.636571-2.669714-57.051429 20.845714-70.217143l13.019429-7.204571a44.324571 44.324571 0 0 1 51.565714 5.851428v-187.428571c0-27.574857 22.418286-49.956571 49.993143-49.956571h10.24c27.538286 0 49.92 22.381714 49.92 49.956571v159.085714h42.715428v-159.085714c0-27.574857 22.381714-49.956571 49.956572-49.956571h10.24c27.538286 0 49.92 22.381714 49.92 49.956571V276.406857l28.452571-38.765714c16.457143-22.454857 46.592-26.112 67.108572-8.082286l5.778285 5.12 70.107429-33.389714v-202.605714c0-18.870857 15.36-34.304 34.230857-34.304h18.249143a34.377143 34.377143 0 0 1 34.304 34.340571v54.089143h33.645714v-54.125714c0-18.870857 15.36-34.304 34.267429-34.304h18.212571c18.907429 0 34.230857 15.36 34.230857 34.340571V74.971429a34.852571 34.852571 0 0 1 24.210286 2.706285l15.323429 7.826286a34.816 34.816 0 0 1 15.250285 46.774857z"  horiz-adv-x="1024" />

    
    <glyph glyph-name="jituanjinzhu" unicode="&#58924;" d="M109.714286 705.828571V-18.285714h522.971428V705.828571L512 786.285714 109.714286 705.828571z m301.714285-635.611428h-241.371428V142.628571l241.371428 4.022858v-76.434286z m0 160.914286l-241.371428-4.022858v72.411429l241.371428 16.091429v-84.48z m0 172.982857l-241.371428-16.091429v72.411429l241.371428 28.16v-84.48z m0 177.005714l-241.371428-32.182857V625.371429l241.371428 48.274285v-92.525714zM833.828571 62.171429V705.828571L713.142857 786.285714h-60.342857l60.342857-40.228571V-18.285714H914.285714v80.457143h-80.457143z"  horiz-adv-x="1024" />

    
    <glyph glyph-name="qudaoyewuzixun" unicode="&#58925;" d="M254.537143 376.758857V577.097143c-2.816 0-5.632 0-8.448-0.402286 45.458286 98.56 146.834286 167.350857 264.704 167.350857 117.869714 0 219.245714-68.790857 264.704-167.350857-2.816 0.402286-5.632 0.402286-8.448 0.402286v-200.740572c56.722286 0 102.582857 45.056 102.582857 100.169143 0 37.412571-21.321143 70.4-52.297143 87.698286-44.251429 124.306286-164.534857 213.211429-306.139428 213.211429-142.006857 0-262.290286-89.307429-306.139429-213.211429a99.803429 99.803429 0 0 1-52.297143-87.698286c-0.804571-55.113143 45.056-99.766857 101.778286-99.766857z m477.513143-115.053714a326.582857 326.582857 0 0 0-221.257143-85.284572 326.582857 326.582857 0 0 0-221.257143 85.284572C185.746286 209.005714 117.76 116.077714 117.76-10.24h788.48c0 126.72-69.193143 219.648-174.189714 271.945143z m-221.257143 415.561143c-122.697143 0-222.061714-97.353143-222.061714-217.234286 0-119.881143 99.364571-217.234286 222.061714-217.234286s222.061714 97.353143 222.061714 217.234286c-0.402286 119.881143-99.766857 217.234286-222.061714 217.234286zM512 334.518857c-37.010286 0-67.181714 22.125714-67.181714 49.481143h134.363428c0-27.355429-30.171429-49.481143-67.181714-49.481143z"  horiz-adv-x="1024" />

    
    <glyph glyph-name="wodechengbao" unicode="&#58926;" d="M791.405714 620.544c0 42.788571-42.569143 42.788571-42.569143 42.788571H237.348571s-42.605714 0-42.605714-42.788571v-42.861714H791.405714V620.544z m-127.926857 128.402286H322.56s-42.569143 0-42.569143-42.825143H706.194286c0 42.825143-42.678857 42.825143-42.678857 42.825143z m213.101714-171.264l-25.234285 25.344v-68.096H134.729143V603.026286l-25.234286-25.344c-25.197714-25.344-43.264-32.146286-33.097143-85.686857 10.057143-53.248 59.026286-345.673143 66.230857-385.243429 8.045714-43.410286 52.150857-42.788571 52.150858-42.788571H791.405714s44.141714-0.621714 52.150857 42.788571c7.277714 39.570286 56.173714 331.995429 66.267429 385.243429 10.130286 53.540571-7.936 60.342857-33.28 85.686857z m-213.101714-231.204572s0-42.788571-42.605714-42.788571h-255.634286c-42.642286 0-42.642286 42.788571-42.642286 42.788571v85.650286h59.684572v-68.534857h221.44v68.534857h59.757714v-85.650286z"  horiz-adv-x="1024" />

    
    <glyph glyph-name="yingxiaogenzong" unicode="&#58927;" d="M612.571429 306.614857c12.946286 0 23.405714-10.642286 23.405714-23.771428a23.588571 23.588571 0 0 0-23.405714-23.698286h-77.165715v-20.333714a23.588571 23.588571 0 0 0-23.405714-23.698286 23.588571 23.588571 0 0 0-23.515429 23.698286v20.333714h-77.092571a23.442286 23.442286 0 0 0-20.297143 11.849143 23.954286 23.954286 0 0 0 0 23.771428 23.442286 23.442286 0 0 0 20.297143 11.849143h77.165714v54.125714h-77.165714a22.820571 22.820571 0 0 0-16.457143 6.875429 24.393143 24.393143 0 0 0-7.021714 16.896c0 13.056 10.532571 23.698286 23.478857 23.698286h67.474286l-0.256 0.182857-67.035429 67.730286a23.881143 23.881143 0 0 0 10.569143 39.716571c8.045714 2.194286 16.64-0.109714 22.637714-6.107429l67.035429-67.803428 0.146286-0.219429 0.182857 0.219429 67.035428 67.730286a23.296 23.296 0 0 0 33.206857 0c9.106286-9.252571 9.106286-24.246857 0-33.536l-67.072-67.730286-0.256-0.182857h67.474286c12.982857 0 23.478857-10.605714 23.478857-23.698286a24.393143 24.393143 0 0 0-6.948571-16.896 22.820571 22.820571 0 0 0-16.530286-6.838857H535.405714v-54.162286h77.165715z m268.141714 169.325714h33.536v169.691429A67.364571 67.364571 0 0 1 847.140571 713.142857H176.786286C139.812571 713.142857 109.787429 682.971429 109.714286 645.632v-169.691429h33.536c55.442286 0 100.571429-45.531429 100.571428-101.522285 0-55.990857-45.129143-101.668571-100.571428-101.668572H109.714286v-169.618285a67.364571 67.364571 0 0 1 67.108571-67.510858h670.354286c36.937143 0 66.998857 30.134857 67.108571 67.510858V272.822857h-33.536c-55.442286 0-100.571429 45.568-100.571428 101.632 0 55.954286 45.129143 101.595429 100.571428 101.595429l-0.036571-0.036572z"  horiz-adv-x="1024" />

    
    <glyph glyph-name="wodeyujing" unicode="&#58928;" d="M875.995429-26.404571H148.004571A1.718857 1.718857 0 0 0 146.285714-24.722286v81.956572c0 0.950857 0.768 1.718857 1.718857 1.718857h727.990858c0.950857 0 1.718857-0.768 1.718857-1.718857v-81.92a1.718857 1.718857 0 0 0-1.718857-1.718857zM512 786.285714c-152.064 0-276.48-122.989714-276.48-273.261714V118.125714c0-3.254857 0.402286-6.436571 0.512-9.654857h551.936c0.109714 3.218286 0.475429 6.4 0.475429 9.654857V513.024C788.48 663.332571 664.064 786.285714 512 786.285714z m-19.675429-561.225143V386.925714H345.014857l180.297143 214.674286v-136.850286h153.673143l-186.660572-239.725714z"  horiz-adv-x="1024" />

    
    <glyph glyph-name="kuandaixinxishangbao" unicode="&#58929;" d="M920.429714 437.174857a200.009143 200.009143 0 0 1-88.502857 19.968c-28.598857 0-56.100571-5.851429-81.956571-17.481143a214.528 214.528 0 0 1-66.633143-46.884571 220.891429 220.891429 0 0 1-49.152-79.213714H132.022857a21.211429 21.211429 0 0 1 0-42.349715h491.702857a212.918857 212.918857 0 0 1-2.048-30.646857 214.674286 214.674286 0 0 1 21.211429-94.390857H132.681143a59.355429 59.355429 0 0 0-59.392 59.392v30.134857c0 10.093714 0.365714 20.187429 1.133714 30.281143 4.132571 49.737143 9.362286 81.188571 22.966857 140.836571l10.130286 39.643429c13.238857 52.699429 38.765714 72.228571 80.310857 72.228571H759.954286v209.188572a20.918857 20.918857 0 0 0 41.801143 0v-209.188572h34.523428a83.017143 83.017143 0 0 0 82.212572-71.972571l1.938285-9.545143zM992.914286 310.272c9.216-21.76 13.897143-44.982857 13.897143-69.485714a178.614857 178.614857 0 0 0-13.897143-70.326857 186.002286 186.002286 0 0 0-37.522286-57.161143 178.102857 178.102857 0 0 0-55.296-38.802286 162.523429 162.523429 0 0 0-67.949714-14.336 161.28 161.28 0 0 0-67.181715 14.336 176.786286 176.786286 0 0 0-55.296 38.802286 184.905143 184.905143 0 0 0-37.558857 57.197714A178.432 178.432 0 0 0 658.285714 240.749714a176.347429 176.347429 0 0 0 13.824 69.485715 184.466286 184.466286 0 0 0 37.558857 57.161142 177.993143 177.993143 0 0 0 55.296 38.912 161.938286 161.938286 0 0 0 67.181715 14.262858 163.364571 163.364571 0 0 0 67.949714-14.262858c20.736-9.325714 39.497143-22.528 55.259429-38.912 15.945143-16.530286 28.708571-35.913143 37.558857-57.124571z m-131.254857-56.32h85.979428l-112.420571 110.774857-112.457143-110.811428h84.406857v-124.050286a27.245714 27.245714 0 1 1 54.491429 0v124.050286z"  horiz-adv-x="1024" />

    
    <glyph glyph-name="zhichayonghuxiufu" unicode="&#58930;" d="M474.404571 451.730286a23.259429 23.259429 0 0 1-32.914285-0.256l-0.365715-0.365715a23.844571 23.844571 0 0 1 0-32.914285l66.450286-66.998857c8.96-9.179429 23.771429-9.252571 32.914286-0.365715l0.365714 0.365715a23.917714 23.917714 0 0 1 0 33.499428l-66.450286 67.035429z m375.771429 151.515428l0.109714-0.073143c49.408-112.932571 28.306286-249.709714-63.524571-342.272-84.772571-85.467429-223.634286-93.476571-330.093714-57.307428l-165.997715-167.497143c-55.076571-55.515429-127.707429-72.228571-182.710857-16.713143-55.003429 55.478857-38.473143 128.731429 16.530286 184.210286l169.947428 171.300571c-30.427429 104.557714-21.394286 238.994286 60.452572 321.462857 91.648 92.379429 227.474286 113.371429 339.346286 63.853715l0.987428-0.548572a11.922286 11.922286 0 0 0 2.121143-19.529143L575.817143 617.691429a14.116571 14.116571 0 0 1-4.022857-12.068572l14.628571-103.131428a9.472 9.472 0 0 1 7.936-8.045715l102.326857-14.738285a14.226286 14.226286 0 0 1 11.958857 4.022857l121.782858 122.806857a11.629714 11.629714 0 0 0 16.384 1.243428l0.182857-0.182857c1.462857-1.170286 2.56-2.633143 3.181714-4.352z"  horiz-adv-x="1024" />

    
    <glyph glyph-name="ziyuandianchaxun" unicode="&#58931;" d="M948.882286 44.653714c-0.438857 6.692571-4.864 14.701714-12.8 24.027429-2.230857 2.669714-7.094857 7.094857-13.714286 13.787428-7.094857 7.533714-15.067429 15.104-23.442286 23.552l-32.292571 31.122286c9.728 15.104 16.822857 31.122286 20.772571 48.896 4.425143 17.810286 5.778286 35.108571 4.425143 52.918857a156.379429 156.379429 0 0 1-13.714286 52.004572 161.28 161.28 0 0 1-31.378285 46.262857 154.221714 154.221714 0 0 1-53.504 34.669714 167.862857 167.862857 0 0 1-60.123429 11.556572c-19.894857 0-40.228571-4.022857-59.684571-11.556572a155.209143 155.209143 0 0 1-52.662857-34.669714c-15.433143-15.579429-27.392-32.914286-35.364572-52.48a154.075429 154.075429 0 0 1 0-119.149714c7.972571-19.565714 19.456-36.900571 35.401143-52.004572a146.285714 146.285714 0 0 1 45.531429-32c16.822857-7.570286 34.048-11.593143 51.748571-12.909714 17.664-0.877714 35.364571 0.877714 53.028571 4.900571 17.700571 3.986286 34.523429 10.642286 50.432 20.004572l58.806858-52.918857c3.986286-3.547429 8.850286-6.656 14.153142-10.24 5.302857-3.108571 11.044571-5.778286 16.822858-7.972572 5.705143-2.230857 11.483429-3.108571 16.786285-3.108571a17.810286 17.810286 0 0 1 12.8 6.217143c6.217143 6.217143 8.850286 12.434286 7.972572 19.090285z m-126.902857 144.091429a88.758857 88.758857 0 0 0-20.333715-30.244572c-8.411429-8.923429-18.578286-15.579429-30.061714-20.48a93.988571 93.988571 0 0 0-37.156571-7.533714 93.988571 93.988571 0 0 0-37.156572 7.533714 90.038857 90.038857 0 0 0-30.500571 20.48 88.758857 88.758857 0 0 0-20.333715 30.208 95.451429 95.451429 0 0 0-7.533714 37.339429c0 12.909714 2.230857 25.344 7.533714 36.937143a96.329143 96.329143 0 0 0 87.990858 57.782857c13.275429 0 25.636571-2.669714 37.156571-7.570286 11.483429-4.900571 21.650286-11.556571 30.061714-20.48 8.411429-8.411429 15.469714-18.651429 20.333715-29.769143 4.864-11.117714 7.497143-23.552 7.497142-36.900571 0-13.312-2.194286-25.782857-7.497142-37.302857zM359.021714 672.402286h156.525715c18.139429 0 33.645714 17.334857 33.645714 38.217143 0 21.357714-15.506286 38.253714-34.523429 38.253714H359.021714c-19.017143 0-34.486857-16.896-34.486857-38.253714 0-21.321143 15.469714-38.217143 34.486857-38.217143zM512 215.844571H266.605714c-12.361143 0-24.758857 15.104-24.758857 28.013715 0 12.434286 10.605714 23.113143 23.003429 23.113143h252.928a232.374857 232.374857 0 0 0 38.912 84.918857H267.922286c-12.361143 0-20.333714 13.312-20.333715 25.782857 0 12.434286 10.605714 24.868571 23.04 24.868571h338.212572a222.793143 222.793143 0 0 0 129.097143 40.484572c10.605714 0 21.248-0.877714 31.451428-2.194286V635.501714c0 52.004571-27.904 88.027429-86.272 88.027429h-77.348571c0.877714-4.022857 1.316571-8.448 1.316571-12.909714 0-32-23.003429-64-50.834285-64H317.915429c-29.184 0-52.187429 31.561143-52.187429 64 0 4.461714 0.438857 8.448 1.316571 12.909714h-78.262857c-63.232 0-78.701714-36.022857-78.701714-88.027429v-513.938285c0-55.588571 22.125714-86.710857 83.126857-86.710858h408.137143A228.022857 228.022857 0 0 0 512 215.844571zM270.628571 542.610286h336.018286c12.361143 0 23.003429-11.556571 23.881143-24.868572 0-12.470857-13.275429-25.819429-25.636571-25.819428H267.483429c-12.361143 0-20.333714 13.348571-20.333715 25.782857 0.877714 12.434286 11.044571 24.868571 23.442286 24.868571z"  horiz-adv-x="1024" />

    
    <glyph glyph-name="jingzhengxinxishangbao" unicode="&#58932;" d="M526.262857 113.152v12.288c0 3.218286 0.256 7.094857 0.804572 11.446857H331.849143c-13.677714 0-25.417143 4.864-35.145143 14.665143a49.078857 49.078857 0 0 0-14.628571 35.949714c0 14.153143 4.864 26.331429 14.628571 36.388572 9.728 10.093714 21.467429 15.067429 35.145143 15.067428h229.961143a224.219429 224.219429 0 0 0 79.36 76.873143 212.662857 212.662857 0 0 0 122.148571 28.16c4.717714-0.219429 9.472-0.658286 14.262857-1.243428V545.462857h-115.419428c-14.738286 0-27.392 3.364571-37.924572 10.24a85.942857 85.942857 0 0 0-25.636571 25.307429 111.104 111.104 0 0 0-14.628572 33.024 132.278857 132.278857 0 0 0-4.754285 33.572571V749.714286H212.918857a29.001143 29.001143 0 0 1-20.918857-8.923429 31.122286 31.122286 0 0 1-8.777143-21.76v-705.938286c0-7.789714 2.925714-15.652571 8.740572-21.686857a29.037714 29.037714 0 0 1 20.918857-8.923428h70.180571c0.731429-0.109714 1.462857-0.109714 2.157714-0.109715h280.502858a227.181714 227.181714 0 0 0-29.220572 60.928 233.947429 233.947429 0 0 0-10.24 69.851429z m-229.485714 315.428571c9.142857 9.581714 21.869714 14.884571 35.108571 14.701715h296.301715c13.677714 0 25.380571-4.864 35.181714-14.701715 9.728-9.764571 14.628571-21.796571 14.628571-35.949714 0-14.116571-4.900571-26.294857-14.628571-36.352a47.177143 47.177143 0 0 0-35.181714-15.140571H331.849143c-13.677714 0-25.417143 5.046857-35.108572 15.140571a50.395429 50.395429 0 0 0-14.628571 36.352c0 14.153143 4.827429 26.185143 14.628571 35.949714z m391.387428 169.179429a58.368 58.368 0 0 0-41.910857 17.883429 62.134857 62.134857 0 0 0-17.334857 43.337142V749.714286h119.003429c7.570286 0 15.140571-2.962286 20.955428-8.923429 5.595429-5.851429 8.740571-13.604571 8.704-21.723428v-121.344h-89.417143v0.036571z m224.877715-415.926857a184.978286 184.978286 0 0 1-37.558857 57.124571 178.212571 178.212571 0 0 1-55.222858 38.912 163.364571 163.364571 0 0 1-68.022857 14.262857c-23.698286 0-46.08-4.790857-67.145143-14.262857a177.993143 177.993143 0 0 1-55.296-38.912 184.466286 184.466286 0 0 1-37.558857-57.124571 176.347429 176.347429 0 0 1-13.824-69.485714c0-25.051429 4.608-48.530286 13.824-70.290286 8.850286-21.211429 21.577143-40.594286 37.558857-57.161143 15.725714-16.384 34.194286-29.366857 55.296-38.838857a161.28 161.28 0 0 1 67.181715-14.299429c24.210286 0 46.921143 4.754286 67.949714 14.299429a178.102857 178.102857 0 0 1 55.296 38.838857 186.002286 186.002286 0 0 1 37.558857 57.124571 178.614857 178.614857 0 0 1 13.824 70.326858 176.64 176.64 0 0 1-13.897143 69.485714z m-131.291429-56.32v-124.086857a27.245714 27.245714 0 1 0-54.491428 0v124.086857H642.925714l112.457143 110.811428 112.420572-110.811428h-85.979429z"  horiz-adv-x="1024" />

    
    <glyph glyph-name="yuangongguanhuai" unicode="&#58933;" d="M309.723429 316.598857a73.508571 73.508571 0 0 1-3.730286-23.259428v-74.130286c0-40.96 33.462857-74.130286 74.752-74.130286h74.788571c41.289143 0 74.752 33.206857 74.752 74.130286v74.130286c0 8.155429-1.316571 15.945143-3.730285 23.296 111.542857-29.622857 190.646857-103.570286 190.646857-190.098286v-55.771429a73.874286 73.874286 0 0 0-21.906286-52.406857c-14.006857-13.897143-33.024-21.723429-52.845714-21.723428H193.828571a75.081143 75.081143 0 0 0-52.882285 21.723428 73.874286 73.874286 0 0 0-21.869715 52.406857V126.537143c0 86.528 79.104 160.512 190.646858 190.098286v-0.036572z m509.403428-246.454857c6.729143 11.373714 10.24 24.32 10.24 37.522286V163.474286c0 81.554286-74.715429 151.990857-182.601143 184.576 43.154286 40.777143 70.436571 100.754286 70.436572 167.643428 0 40.374857-9.947429 78.226286-27.282286 110.811429 77.897143-5.741714 139.446857-78.08 139.446857-166.436572 0-57.673143-26.185143-108.470857-66.048-138.459428 103.570286-22.235429 178.176-84.626286 178.176-158.134857v-56.246857c0-20.48-16.713143-37.083429-37.376-37.083429h-84.992z m-401.005714 223.195429c20.662857 0 37.412571-16.603429 37.412571-37.083429v-37.083429c0-13.238857-7.131429-25.453714-18.724571-32.109714a37.668571 37.668571 0 0 0-37.376 0 37.010286 37.010286 0 0 0-18.651429 32.109714v37.083429c0 9.837714 3.913143 19.273143 10.934857 26.221714 6.985143 6.948571 16.493714 10.861714 26.404572 10.861715z m0 37.083428c-103.204571 0-186.88 91.282286-186.88 203.812572 0 112.64 83.675429 203.885714 186.88 203.885714 103.241143 0 186.916571-91.282286 186.916571-203.885714 0-112.530286-83.675429-203.812571-186.88-203.812572z"  horiz-adv-x="1024" />

    
    <glyph glyph-name="ziyoubaitan" unicode="&#58934;" d="M209.627429 704.731429h600.502857c22.601143 0 40.96 18.249143 40.96 40.777142S832.731429 786.285714 810.130286 786.285714H209.627429c-14.628571 0-28.16-7.789714-35.474286-20.406857-7.314286-12.617143-7.314286-28.16 0-40.777143s20.845714-20.406857 35.474286-20.406857z m660.224-40.813715H149.906286L73.142857 460.068571a108.982857 108.982857 0 0 1 109.165714-106.24 108.982857 108.982857 0 0 1 109.202286 106.24 108.982857 108.982857 0 0 1 109.165714-106.422857 108.982857 108.982857 0 0 1 109.202286 106.422857 108.982857 108.982857 0 0 1 109.202286-106.24 108.982857 108.982857 0 0 1 109.165714 106.24 108.690286 108.690286 0 0 1 53.76-96.438857 109.604571 109.604571 0 0 1 110.811429 0 108.690286 108.690286 0 0 1 53.76 96.438857l-76.726857 203.885715zM364.507429 103.789714a182.345143 182.345143 0 0 0-6.473143 9.654857l-0.475429 0.731429a59.721143 59.721143 0 0 0-3.474286 5.924571l-0.036571 0.109715H236.946286v200.667428c-7.058286-2.706286-14.262857-4.900571-21.650286-6.509714-1.755429-0.402286-3.474286-0.877714-5.193143-1.243429l-2.486857-0.365714a156.233143 156.233143 0 0 0-25.234286-2.230857c-9.179429 0-18.322286 0.877714-27.318857 2.56v-274.432c0-22.528 18.322286-40.777143 40.96-40.777143h239.286857l-70.802285 105.910857z m472.905142 206.701715c-4.608 0-9.142857 0.256-13.641142 0.658285-3.913143 0.365714-7.789714 0.987429-11.593143 1.572572l-2.486857 0.365714c-1.792 0.329143-3.510857 0.804571-5.266286 1.206857a155.611429 155.611429 0 0 0-21.577143 6.473143v-200.557714h-117.065143a60.452571 60.452571 0 0 0-3.291428-5.668572l-0.950858-1.499428c-1.755429-2.852571-3.657143-5.705143-5.632-8.448l-71.387428-106.715429h239.286857c22.601143 0 40.96 18.285714 40.96 40.777143v274.432c-9.033143-1.682286-18.176-2.56-27.318857-2.56z m-209.956571-53.979429a127.597714 127.597714 0 0 1-107.008 77.348571 127.780571 127.780571 0 0 1-118.418286-58.550857 126.683429 126.683429 0 0 1-2.011428-133.046857l0.987428-1.462857c1.718857-2.742857 3.510857-5.485714 5.449143-8.118857l96.731429-144.676572a7.606857 7.606857 0 0 1 6.363428-3.401142h0.731429c2.56 0 4.973714 1.28 6.4 3.401142l97.170286 145.334858c1.682286 2.340571 3.291429 4.717714 4.754285 7.094857l1.206857 1.828571a127.049143 127.049143 0 0 1 7.68 114.249143h-0.036571z m-117.76-120.685714a68.608 68.608 0 0 0-68.681143 68.425143c0 37.814857 30.756571 68.461714 68.754286 68.461714 37.924571 0 68.717714-30.646857 68.717714-68.461714 0-18.139429-7.241143-35.584-20.150857-48.420572-12.909714-12.8-30.354286-20.041143-48.64-20.041143z"  horiz-adv-x="1024" />

    
    <glyph glyph-name="jinxiaocun" unicode="&#58917;" d="M505.607 731.713L161.786 580.956l344.079-143.714a16 16 0 0 1 12.333 0l344.077 143.714-343.819 150.757a16 16 0 0 1-12.85 0z m450.836-122.165c16.185-7.097 23.552-25.971 16.456-42.155a32 32 0 0 0-16.974-16.678l-431.56-180.252a32 32 0 0 0-24.667 0l-431.56 180.25c-16.308 6.812-24.006 25.553-17.195 41.861a32 32 0 0 0 16.677 16.972l431.561 189.23a32 32 0 0 0 25.7 0l431.562-189.228zM512.032 432.377l-60.044 27.142-290.201-127.09 350.244-146.29 350.245 146.29-289.96 127.14-60.285-27.192zM370.13 493.662l136.193-56.885a16 16 0 0 1 12.334 0l135.723 56.688L956.442 361.02c16.185-7.098 23.552-25.972 16.456-42.156a32 32 0 0 0-16.974-16.678l-431.56-180.252a32 32 0 0 0-24.667 0L68.137 302.186c-16.307 6.811-24.005 25.552-17.194 41.86A32 32 0 0 0 67.62 361.02l302.511 132.643zM512.032 166.082l-72.094 40.848-278.152-121.963 350.246-146.29 350.245 146.29-261.732 114.762-88.513-33.647z m-142.824 79.716L512 186.166l142.824 59.644 301.619-132.252c16.185-7.096 23.552-25.97 16.456-42.155a32 32 0 0 0-16.974-16.678l-431.56-180.252a32 32 0 0 0-24.667 0L68.138 54.724c-16.308 6.812-24.006 25.553-17.195 41.86a32 32 0 0 0 16.677 16.973l301.588 132.24z"  horiz-adv-x="1024" />

    
    <glyph glyph-name="peizhi1" unicode="&#58915;" d="M724 432.8l216.8-123.9v-247.7L724-62.7 507.2 61.2V308.9L724 432.8zM390.2 93v-76.6h-307V93h307zM724 344.6l-140.2-80.1v-158.9L724 25.5l140.2 80.1V264.5L724 344.6z m0.2-101.3c32.1 0 58.1-26 58.1-58.1s-26-58.1-58.1-58.1-58.1 26-58.1 58.1 26 58.1 58.1 58.1z m-333 69.2V236H83.3v76.6h307.9zM514.4 532v-76.6H83.3V532h431.1z m304.8 219.5v-76.6h-736v76.6h736z"  horiz-adv-x="1024" />

    
    <glyph glyph-name="weixinrenyuanweihu" unicode="&#58914;" d="M498.176 865.28c-150.528 0-272.896-122.368-272.896-272.896 0-103.936 39.936-194.56 125.44-240.64C172.032 296.448 52.224 130.048 52.224-66.56c0-7.168 2.56-13.312 7.68-18.432s19.968-11.776 26.624-11.776c7.168 0 22.016 6.656 26.624 11.776 5.12 5.12 7.68 11.776 7.68 18.432 0 212.48 164.864 381.44 375.296 381.44 2.56-0.512 5.632 0 8.192 0.512 147.968 3.072 266.752 128.512 266.752 276.992 0.512 150.528-122.368 272.896-272.896 272.896z m-0.512-480.768c-121.856 0-204.288 82.432-204.288 204.288 0 121.856 82.432 202.24 204.288 202.24 121.856 0 204.288-80.384 204.288-202.24S619.52 384.512 497.664 384.512zM586.24 216.064h342.528c23.552 0 43.008 15.872 43.008 35.84s-19.456 35.84-43.008 35.84H586.24c-23.552 0-43.008-16.384-43.008-35.84 0.512-19.456 19.456-35.84 43.008-35.84z m342.528-230.912H586.24c-23.552 0-43.008-16.384-43.008-35.84 0-19.968 18.944-35.84 43.008-35.84h342.528c23.552 0 43.008 16.384 43.008 35.84 0 19.968-19.456 35.84-43.008 35.84z m0 145.408H586.24c-23.552 0-43.008-16.384-43.008-35.84 0-19.968 18.944-35.84 43.008-35.84h342.528c23.552 0 43.008 16.384 43.008 35.84s-19.456 35.84-43.008 35.84z"  horiz-adv-x="1024" />

    
    <glyph glyph-name="baobiao" unicode="&#58913;" d="M462.3 173.4H250.5c-18 0-32.6-13.7-32.6-30.4 0-16.8 14.6-30.4 32.6-30.4h211.8c18 0 32.6 13.6 32.6 30.4-0.1 16.7-14.7 30.4-32.6 30.4zM709.5 295h-459c-18 0-32.6-13.6-32.6-30.4 0-16.8 14.6-30.4 32.6-30.4h459c18 0 32.6 13.6 32.6 30.4 0 16.8-14.6 30.4-32.6 30.4z m0 121.7h-459c-18 0-32.6-13.6-32.6-30.4 0-16.8 14.6-30.4 32.6-30.4h459c18 0 32.6 13.7 32.6 30.4s-14.6 30.4-32.6 30.4zM778.7 797.8H181.3c-64.8 0-117.4-43.9-117.4-98v-634.1c0-54 52.6-98 117.4-98h597.4c64.8 0 117.4 44 117.4 98.1v634c0 54.1-52.6 98-117.4 98z m58.7-731.9c0-27.1-26.3-39.1-58.7-39.1H181.3c-32.3 0-58.7 12-58.7 39.1v634c0 27.1 26.3 39.1 58.7 39.1h597.4c32.3 0 58.7-12 58.7-39.1v-634zM251.9 459.1c7.9 0 15.5 2.7 21.6 7.6l142.3 118.1 96.1-84.8c12.2-10.6 31-11 43.7-0.8l174 140.8c6.7 5.5 10.6 13.2 11.1 21.5 0.4 8.2-2.6 16.1-8.6 22.1-12.1 12.1-31.9 13.1-45.2 2.3L535.1 563.1l-96.3 85c-12.4 10.9-31.3 11.2-44.1 0.7L230.1 512.2c-6.6-5.6-10.4-13.2-10.8-21.5-0.3-8.2 2.8-16.1 8.8-22 6.2-6.2 14.8-9.6 23.8-9.6z"  horiz-adv-x="1024" />

    
    <glyph glyph-name="chuangjian" unicode="&#58912;" d="M795.392 762.624H230.4a102.4 102.4 0 0 1-102.4-102.4v-551.04a102.4 102.4 0 0 1 102.4-102.4h564.992a102.4 102.4 0 0 1 102.4 102.4V660.736a102.4 102.4 0 0 1-102.4 101.888zM844.8 131.84a73.216 73.216 0 0 0-73.216-73.216H253.568a73.216 73.216 0 0 0-73.088 73.216V638.208a73.216 73.216 0 0 0 73.216 73.216h518.272a73.216 73.216 0 0 0 72.832-73.216zM678.4 411.776H544v147.2c0 41.216-64 41.216-64 0v-147.2H345.6c-41.216 0-41.216-64 0-64H480v-147.2c0-41.216 64-41.216 64 0v147.2h134.4c41.216 0 41.216 64 0 64z"  horiz-adv-x="1024" />

    
    <glyph glyph-name="yingxiaodefuben" unicode="&#58911;" d="M521.216 829.952L64.512 371.712l-3.072-3.072 435.712-432.128 3.072-3.072 459.264 455.168 1.536 1.536V830.464l-439.808-0.512z m375.296-64.512v-355.328l-396.8-386.048-348.16 344.064 394.752 397.824 350.208-0.512zM757.248 576c32.768 0 59.392 26.624 59.392 59.392s-26.624 59.392-59.392 59.392-59.392-26.624-59.392-59.392S724.48 576 757.248 576zM377.344 439.296l-28.672-28.672 76.288-76.288-73.728-73.216 40.96-40.96 73.728 73.216 76.288-76.288 28.672 28.672-76.288 76.288 27.136 27.136 76.288-76.288 28.672 28.672-58.368 59.392 196.608 44.032-47.104 47.104-181.248-46.08 46.08 181.248-47.104 47.104L491.52 437.76l-57.856 57.856-28.672-28.672 76.288-76.288-27.136-27.136-76.8 75.776z"  horiz-adv-x="1024" />

    
    <glyph glyph-name="icon-test" unicode="&#58910;" d="M711.111-42.667H170.666c-31.402 0-56.888 25.458-56.888 56.89v768c0 31.43 25.486 56.888 56.889 56.888h682.666c31.431 0 56.89-25.458 56.89-56.889v-625.778L711.11-42.666z m142.222 824.89H170.667v-768h512.398l56.49 56.888 113.778 112.242v598.87z m-256-455.112h-256V640h312.889v-312.889H597.333z m-199.11 256V384h199.11V583.111h-199.11z"  horiz-adv-x="1024" />

    
    </font>
</defs>
</svg>
